<svg width="393" height="235" viewBox="0 0 393 235" fill="none" xmlns="http://www.w3.org/2000/svg">
<g filter="url(#filter0_d_361_192)">
<rect x="22" y="21" width="350" height="187.978" rx="15" fill="white" shape-rendering="crispEdges"/>
<g filter="url(#filter1_d_361_192)">
<path fill-rule="evenodd" clip-rule="evenodd" d="M190.295 46.2017C183.352 50.1619 160.987 62.7181 151.039 68.2408C144.351 71.9532 144.295 72.027 145.733 75.192C146.722 77.3699 149.156 79.5799 151.37 80.3106C154.779 81.4356 155.623 81.0654 176.571 69.2448C187.479 63.0902 196.658 58.0548 196.97 58.0548C197.281 58.0548 206.398 63.0555 217.23 69.1673C230.292 76.5373 237.541 80.3782 238.755 80.5723C241.405 80.9959 244.439 80.008 246.346 78.1011C247.789 76.6588 249.065 73.8618 249.02 72.2438C249.01 71.9051 246.256 70.1023 242.901 68.2377C235.547 64.152 213.669 51.8842 204 46.4247C200.157 44.2548 196.952 42.4885 196.88 42.5001C196.807 42.5112 193.844 44.1769 190.295 46.2017ZM180.727 73.9095C171.915 78.9217 163.154 83.8156 161.257 84.7844L157.808 86.5458V107.012V127.478H163.589H169.369L169.485 108.898L169.601 90.3186H196.97H224.338L224.455 108.898L224.571 127.478H230.351H236.131V106.874V86.2698L234.685 85.7465C233.89 85.4586 225.067 80.6119 215.079 74.9766C205.091 69.3409 196.881 64.7447 196.833 64.763C196.786 64.7808 189.538 68.8968 180.727 73.9095ZM193.855 79.8607V82.9758H190.962H188.069V79.8607V76.7456H190.962H193.855V79.8607ZM206.315 79.8607V82.9758H203.2H200.085V79.8607V76.7456H203.2H206.315V79.8607ZM175.609 99.4415V102.557H196.97H218.331V99.4415V96.3264H196.97H175.609V99.4415ZM175.609 111.902V115.017H196.97H218.331V111.902V108.787H196.97H175.609V111.902ZM175.91 121.095C175.744 121.26 175.609 122.764 175.609 124.437V127.478H196.989H218.37L218.239 124.251L218.108 121.025L197.159 120.909C185.638 120.846 176.075 120.929 175.91 121.095Z" fill="url(#paint0_linear_361_192)"/>
</g>
<path d="M84.2565 160.478C83.5632 160.478 83.0725 160.334 82.7845 160.046C82.5072 159.758 82.3685 159.304 82.3685 158.686V151.838H84.5285V158.126C84.5285 158.574 84.7472 158.798 85.1845 158.798H85.7285V160.478H84.2565ZM80.1605 160.478C79.4672 160.478 78.9765 160.334 78.6885 160.046C78.4112 159.758 78.2725 159.304 78.2725 158.686V151.838H80.4325V158.126C80.4325 158.574 80.6512 158.798 81.0885 158.798H81.6325V160.478H80.1605ZM87.2089 160.478V151.838H89.1929L89.2889 152.686C89.6729 152.376 90.1155 152.131 90.6169 151.95C91.1289 151.768 91.6835 151.678 92.2809 151.678C93.1875 151.678 93.8969 151.955 94.4089 152.51C94.9315 153.064 95.1929 153.827 95.1929 154.798V160.478H93.0329V154.926C93.0329 154.371 92.8995 153.971 92.6329 153.726C92.3769 153.48 91.9929 153.358 91.4809 153.358C91.0862 153.358 90.6915 153.443 90.2969 153.614C89.9129 153.784 89.6035 153.998 89.3689 154.254V160.478H87.2089ZM100.012 160.638C99.4142 160.638 98.8382 160.595 98.2835 160.51C97.7395 160.424 97.2968 160.312 96.9555 160.174V158.43C97.3608 158.6 97.8035 158.734 98.2835 158.83C98.7742 158.915 99.2168 158.958 99.6115 158.958C100.305 158.958 100.806 158.904 101.116 158.798C101.436 158.691 101.596 158.472 101.596 158.142C101.596 157.886 101.51 157.688 101.34 157.55C101.18 157.411 100.929 157.288 100.588 157.182C100.246 157.064 99.8088 156.915 99.2755 156.734C98.4968 156.456 97.8835 156.147 97.4355 155.806C96.9982 155.454 96.7795 154.936 96.7795 154.254C96.7795 153.486 97.0782 152.867 97.6755 152.398C98.2728 151.918 99.1742 151.678 100.38 151.678C100.881 151.678 101.382 151.715 101.884 151.79C102.385 151.864 102.796 151.955 103.116 152.062V153.79C102.764 153.64 102.358 153.534 101.9 153.47C101.452 153.395 101.046 153.358 100.684 153.358C100.182 153.358 99.7448 153.416 99.3715 153.534C99.0088 153.64 98.8275 153.864 98.8275 154.206C98.8275 154.419 98.9182 154.59 99.0995 154.718C99.2915 154.846 99.5582 154.963 99.8995 155.07C100.252 155.176 100.668 155.315 101.148 155.486C101.745 155.688 102.225 155.902 102.588 156.126C102.961 156.35 103.228 156.622 103.388 156.942C103.558 157.262 103.644 157.662 103.644 158.142C103.644 158.984 103.318 159.614 102.668 160.03C102.028 160.435 101.142 160.638 100.012 160.638ZM108.138 160.638C107.21 160.638 106.48 160.36 105.946 159.806C105.413 159.24 105.146 158.456 105.146 157.454V151.838H107.306V157.326C107.306 157.912 107.434 158.334 107.69 158.59C107.957 158.835 108.346 158.958 108.858 158.958C109.264 158.958 109.658 158.872 110.042 158.702C110.426 158.531 110.736 158.318 110.97 158.062V151.838H113.13V160.478H111.146L111.05 159.63C110.666 159.939 110.234 160.184 109.754 160.366C109.274 160.547 108.736 160.638 108.138 160.638ZM118.333 160.638C117.64 160.638 117.021 160.488 116.477 160.19C115.933 159.891 115.501 159.427 115.181 158.798C114.872 158.158 114.717 157.336 114.717 156.334C114.717 154.862 115.096 153.72 115.853 152.91C116.621 152.088 117.746 151.678 119.229 151.678C120.264 151.678 121.101 151.854 121.741 152.206C122.381 152.547 122.845 152.99 123.133 153.534C123.432 154.078 123.581 154.654 123.581 155.262V160.478H121.421V155.406C121.421 155 121.357 154.648 121.229 154.35C121.101 154.04 120.872 153.8 120.541 153.63C120.221 153.448 119.773 153.358 119.197 153.358C117.576 153.358 116.765 154.35 116.765 156.334C116.765 157.304 116.936 157.987 117.277 158.382C117.618 158.766 118.098 158.958 118.717 158.958C118.92 158.958 119.117 158.947 119.309 158.926C119.512 158.904 119.682 158.872 119.821 158.83V160.414C119.629 160.488 119.416 160.542 119.181 160.574C118.946 160.616 118.664 160.638 118.333 160.638ZM128.546 160.478V155.166C128.546 154.59 128.434 154.147 128.21 153.838C127.986 153.518 127.538 153.358 126.866 153.358C126.514 153.358 126.141 153.4 125.746 153.486C125.351 153.56 124.999 153.656 124.69 153.774V152.19C125.01 152.04 125.405 151.918 125.874 151.822C126.343 151.726 126.813 151.678 127.282 151.678C128.498 151.678 129.373 151.939 129.906 152.462C130.439 152.974 130.706 153.774 130.706 154.862V160.478H128.546ZM135.527 160.638C134.93 160.638 134.354 160.595 133.799 160.51C133.255 160.424 132.812 160.312 132.471 160.174V158.43C132.876 158.6 133.319 158.734 133.799 158.83C134.29 158.915 134.732 158.958 135.127 158.958C135.82 158.958 136.322 158.904 136.631 158.798C136.951 158.691 137.111 158.472 137.111 158.142C137.111 157.886 137.026 157.688 136.855 157.55C136.695 157.411 136.444 157.288 136.103 157.182C135.762 157.064 135.324 156.915 134.791 156.734C134.012 156.456 133.399 156.147 132.951 155.806C132.514 155.454 132.295 154.936 132.295 154.254C132.295 153.486 132.594 152.867 133.191 152.398C133.788 151.918 134.69 151.678 135.895 151.678C136.396 151.678 136.898 151.715 137.399 151.79C137.9 151.864 138.311 151.955 138.631 152.062V153.79C138.279 153.64 137.874 153.534 137.415 153.47C136.967 153.395 136.562 153.358 136.199 153.358C135.698 153.358 135.26 153.416 134.887 153.534C134.524 153.64 134.343 153.864 134.343 154.206C134.343 154.419 134.434 154.59 134.615 154.718C134.807 154.846 135.074 154.963 135.415 155.07C135.767 155.176 136.183 155.315 136.663 155.486C137.26 155.688 137.74 155.902 138.103 156.126C138.476 156.35 138.743 156.622 138.903 156.942C139.074 157.262 139.159 157.662 139.159 158.142C139.159 158.984 138.834 159.614 138.183 160.03C137.543 160.435 136.658 160.638 135.527 160.638ZM134.646 150.654V148.142H139.542L139.478 149.614H136.406V150.654H134.646ZM146.914 160.638C146.37 160.638 145.868 160.552 145.41 160.382C144.951 160.2 144.583 159.912 144.306 159.518C144.039 159.112 143.906 158.579 143.906 157.918C143.906 157.054 144.199 156.392 144.786 155.934C145.372 155.464 146.215 155.23 147.314 155.23H149.762V154.814C149.762 154.28 149.612 153.907 149.314 153.694C149.015 153.47 148.487 153.358 147.73 153.358C147.207 153.358 146.711 153.395 146.242 153.47C145.783 153.534 145.324 153.64 144.866 153.79V152.174C145.303 152.035 145.81 151.918 146.386 151.822C146.962 151.726 147.527 151.678 148.082 151.678C148.37 151.678 148.642 151.694 148.898 151.726C149.154 151.747 149.394 151.784 149.618 151.838H152.626L152.514 153.486H151.538C151.666 153.688 151.762 153.923 151.826 154.19C151.89 154.456 151.922 154.739 151.922 155.038V160.478H149.762V156.814H147.442C146.983 156.814 146.62 156.894 146.354 157.054C146.087 157.214 145.954 157.502 145.954 157.918C145.954 158.312 146.071 158.584 146.306 158.734C146.54 158.883 146.935 158.958 147.49 158.958C147.692 158.958 147.89 158.947 148.082 158.926C148.284 158.904 148.455 158.872 148.594 158.83V160.414C148.391 160.478 148.14 160.531 147.842 160.574C147.554 160.616 147.244 160.638 146.914 160.638ZM156.563 160.478C155.869 160.478 155.379 160.334 155.091 160.046C154.813 159.758 154.675 159.304 154.675 158.686V151.662C154.675 151.011 154.541 150.51 154.275 150.158C154.019 149.806 153.624 149.539 153.091 149.358V147.774H158.323V149.454H155.811C156.152 149.656 156.408 149.934 156.579 150.286C156.749 150.638 156.835 151.075 156.835 151.598V158.126C156.835 158.574 157.053 158.798 157.491 158.798H158.035V160.478H156.563ZM162.442 160.638C161.749 160.638 161.13 160.488 160.586 160.19C160.042 159.891 159.61 159.427 159.29 158.798C158.981 158.158 158.826 157.336 158.826 156.334C158.826 154.808 159.093 153.651 159.626 152.862C160.17 152.072 160.901 151.678 161.818 151.678C162.277 151.678 162.634 151.752 162.89 151.902C163.146 152.051 163.36 152.248 163.53 152.494C163.744 152.248 164.037 152.051 164.41 151.902C164.794 151.752 165.184 151.678 165.578 151.678C166.336 151.678 166.89 151.907 167.242 152.366C167.605 152.824 167.786 153.427 167.786 154.174V160.478H165.626V154.51C165.626 154.136 165.573 153.854 165.466 153.662C165.37 153.459 165.178 153.358 164.89 153.358C164.698 153.358 164.522 153.422 164.362 153.55C164.213 153.667 164.106 153.848 164.042 154.094H163.002C162.896 153.848 162.784 153.667 162.666 153.55C162.549 153.422 162.378 153.358 162.154 153.358C161.653 153.358 161.312 153.635 161.13 154.19C160.96 154.734 160.874 155.448 160.874 156.334C160.874 157.304 161.045 157.987 161.386 158.382C161.728 158.766 162.208 158.958 162.826 158.958C163.029 158.958 163.226 158.947 163.418 158.926C163.621 158.904 163.792 158.872 163.93 158.83V160.414C163.738 160.488 163.525 160.542 163.29 160.574C163.056 160.616 162.773 160.638 162.442 160.638ZM172.605 160.638C172.008 160.638 171.432 160.595 170.877 160.51C170.333 160.424 169.891 160.312 169.549 160.174V158.43C169.955 158.6 170.397 158.734 170.877 158.83C171.368 158.915 171.811 158.958 172.205 158.958C172.899 158.958 173.4 158.904 173.709 158.798C174.029 158.691 174.189 158.472 174.189 158.142C174.189 157.886 174.104 157.688 173.933 157.55C173.773 157.411 173.523 157.288 173.181 157.182C172.84 157.064 172.403 156.915 171.869 156.734C171.091 156.456 170.477 156.147 170.029 155.806C169.592 155.454 169.373 154.936 169.373 154.254C169.373 153.486 169.672 152.867 170.269 152.398C170.867 151.918 171.768 151.678 172.973 151.678C173.475 151.678 173.976 151.715 174.477 151.79C174.979 151.864 175.389 151.955 175.709 152.062V153.79C175.357 153.64 174.952 153.534 174.493 153.47C174.045 153.395 173.64 153.358 173.277 153.358C172.776 153.358 172.339 153.416 171.965 153.534C171.603 153.64 171.421 153.864 171.421 154.206C171.421 154.419 171.512 154.59 171.693 154.718C171.885 154.846 172.152 154.963 172.493 155.07C172.845 155.176 173.261 155.315 173.741 155.486C174.339 155.688 174.819 155.902 175.181 156.126C175.555 156.35 175.821 156.622 175.981 156.942C176.152 157.262 176.237 157.662 176.237 158.142C176.237 158.984 175.912 159.614 175.261 160.03C174.621 160.435 173.736 160.638 172.605 160.638ZM171.724 150.654V148.142H176.62L176.556 149.614H173.484V150.654H171.724ZM184.552 160.638C183.858 160.638 183.24 160.488 182.696 160.19C182.152 159.891 181.72 159.427 181.4 158.798C181.09 158.158 180.936 157.336 180.936 156.334C180.936 154.862 181.314 153.72 182.072 152.91C182.84 152.088 183.965 151.678 185.448 151.678C186.482 151.678 187.32 151.854 187.96 152.206C188.6 152.547 189.064 152.99 189.352 153.534C189.65 154.078 189.8 154.654 189.8 155.262V160.478H187.64V155.406C187.64 155 187.576 154.648 187.448 154.35C187.32 154.04 187.09 153.8 186.76 153.63C186.44 153.448 185.992 153.358 185.416 153.358C183.794 153.358 182.984 154.35 182.984 156.334C182.984 157.304 183.154 157.987 183.496 158.382C183.837 158.766 184.317 158.958 184.936 158.958C185.138 158.958 185.336 158.947 185.528 158.926C185.73 158.904 185.901 158.872 186.04 158.83V160.414C185.848 160.488 185.634 160.542 185.4 160.574C185.165 160.616 184.882 160.638 184.552 160.638ZM182.813 150.654L182.925 149.182H189.805V150.654H182.813ZM194.445 160.638C193.901 160.638 193.4 160.552 192.941 160.382C192.482 160.2 192.114 159.912 191.837 159.518C191.57 159.112 191.437 158.579 191.437 157.918C191.437 157.054 191.73 156.392 192.317 155.934C192.904 155.464 193.746 155.23 194.845 155.23H197.293V154.814C197.293 154.28 197.144 153.907 196.845 153.694C196.546 153.47 196.018 153.358 195.261 153.358C194.738 153.358 194.242 153.395 193.773 153.47C193.314 153.534 192.856 153.64 192.397 153.79V152.174C192.834 152.035 193.341 151.918 193.917 151.822C194.493 151.726 195.058 151.678 195.613 151.678C195.901 151.678 196.173 151.694 196.429 151.726C196.685 151.747 196.925 151.784 197.149 151.838H200.157L200.045 153.486H199.069C199.197 153.688 199.293 153.923 199.357 154.19C199.421 154.456 199.453 154.739 199.453 155.038V160.478H197.293V156.814H194.973C194.514 156.814 194.152 156.894 193.885 157.054C193.618 157.214 193.485 157.502 193.485 157.918C193.485 158.312 193.602 158.584 193.837 158.734C194.072 158.883 194.466 158.958 195.021 158.958C195.224 158.958 195.421 158.947 195.613 158.926C195.816 158.904 195.986 158.872 196.125 158.83V160.414C195.922 160.478 195.672 160.531 195.373 160.574C195.085 160.616 194.776 160.638 194.445 160.638ZM201.662 160.478V151.838H203.646L203.742 152.686C204.126 152.376 204.569 152.131 205.07 151.95C205.582 151.768 206.137 151.678 206.734 151.678C207.641 151.678 208.35 151.955 208.862 152.51C209.385 153.064 209.646 153.827 209.646 154.798V160.478H207.486V154.926C207.486 154.371 207.353 153.971 207.086 153.726C206.83 153.48 206.446 153.358 205.934 153.358C205.539 153.358 205.145 153.443 204.75 153.614C204.366 153.784 204.057 153.998 203.822 154.254V160.478H201.662ZM214.465 160.638C213.867 160.638 213.291 160.595 212.737 160.51C212.193 160.424 211.75 160.312 211.409 160.174V158.43C211.814 158.6 212.257 158.734 212.737 158.83C213.227 158.915 213.67 158.958 214.065 158.958C214.758 158.958 215.259 158.904 215.569 158.798C215.889 158.691 216.049 158.472 216.049 158.142C216.049 157.886 215.963 157.688 215.793 157.55C215.633 157.411 215.382 157.288 215.041 157.182C214.699 157.064 214.262 156.915 213.729 156.734C212.95 156.456 212.337 156.147 211.889 155.806C211.451 155.454 211.233 154.936 211.233 154.254C211.233 153.486 211.531 152.867 212.129 152.398C212.726 151.918 213.627 151.678 214.833 151.678C215.334 151.678 215.835 151.715 216.337 151.79C216.838 151.864 217.249 151.955 217.569 152.062V153.79C217.217 153.64 216.811 153.534 216.353 153.47C215.905 153.395 215.499 153.358 215.137 153.358C214.635 153.358 214.198 153.416 213.825 153.534C213.462 153.64 213.281 153.864 213.281 154.206C213.281 154.419 213.371 154.59 213.553 154.718C213.745 154.846 214.011 154.963 214.353 155.07C214.705 155.176 215.121 155.315 215.601 155.486C216.198 155.688 216.678 155.902 217.041 156.126C217.414 156.35 217.681 156.622 217.841 156.942C218.011 157.262 218.097 157.662 218.097 158.142C218.097 158.984 217.771 159.614 217.121 160.03C216.481 160.435 215.595 160.638 214.465 160.638ZM210.703 150.654L210.815 149.182H217.695V150.654H210.703ZM223.712 160.638C222.442 160.638 221.44 160.339 220.704 159.742C219.968 159.134 219.6 158.222 219.6 157.006V151.838H221.76V157.038C221.76 158.318 222.41 158.958 223.712 158.958C225.013 158.958 225.664 158.318 225.664 157.038V151.838H227.824V157.006C227.824 158.222 227.456 159.134 226.72 159.742C225.984 160.339 224.981 160.638 223.712 160.638ZM220.828 150.654L220.94 149.182H227.82V150.654H220.828ZM231.901 160.638C230.866 160.638 229.949 160.467 229.149 160.126V158.478C229.479 158.616 229.837 158.734 230.221 158.83C230.605 158.915 230.994 158.958 231.389 158.958C232.391 158.958 233.106 158.75 233.533 158.334C233.97 157.918 234.189 157.192 234.189 156.158C234.189 155.123 233.97 154.398 233.533 153.982C233.106 153.566 232.391 153.358 231.389 153.358C230.994 153.358 230.605 153.4 230.221 153.486C229.837 153.571 229.479 153.688 229.149 153.838V152.19C229.949 151.848 230.866 151.678 231.901 151.678C233.362 151.678 234.45 152.062 235.165 152.83C235.879 153.587 236.237 154.696 236.237 156.158C236.237 157.619 235.879 158.734 235.165 159.502C234.45 160.259 233.362 160.638 231.901 160.638ZM241.312 160.638C240.021 160.638 239.051 160.339 238.4 159.742C237.749 159.144 237.424 158.328 237.424 157.294V156.75C237.424 156.387 237.493 156.062 237.632 155.774C237.771 155.486 237.925 155.23 238.096 155.006C238.277 154.782 238.437 154.574 238.576 154.382C238.715 154.19 238.784 154.008 238.784 153.838C238.784 153.678 238.747 153.571 238.672 153.518C238.597 153.464 238.464 153.438 238.272 153.438H237.232L237.408 151.838H239.648C240.533 151.838 240.976 152.248 240.976 153.07C240.976 153.432 240.907 153.763 240.768 154.062C240.629 154.35 240.464 154.627 240.272 154.894C240.091 155.16 239.931 155.443 239.792 155.742C239.653 156.03 239.584 156.36 239.584 156.734V157.422C239.584 158.446 240.16 158.958 241.312 158.958C242.485 158.958 243.072 158.424 243.072 157.358V156.35C243.072 155.944 243.003 155.656 242.864 155.486C242.725 155.315 242.48 155.23 242.128 155.23H241.68L241.776 153.726H242.064C242.416 153.726 242.672 153.635 242.832 153.454C242.992 153.272 243.072 152.984 243.072 152.59V151.678H245.232V152.542C245.232 153.032 245.157 153.432 245.008 153.742C244.859 154.04 244.565 154.286 244.128 154.478C244.576 154.68 244.869 154.942 245.008 155.262C245.157 155.571 245.232 155.96 245.232 156.43V157.262C245.232 158.296 244.885 159.118 244.192 159.726C243.499 160.334 242.539 160.638 241.312 160.638ZM241.115 150.654V148.11H242.875V149.182H246.859L246.779 150.654H241.115ZM243.387 147.198V144.958H245.147V147.198H243.387ZM250.123 160.638C249.195 160.638 248.464 160.36 247.931 159.806C247.397 159.24 247.131 158.456 247.131 157.454V151.838H249.291V157.326C249.291 157.912 249.419 158.334 249.675 158.59C249.941 158.835 250.331 158.958 250.843 158.958C251.248 158.958 251.643 158.872 252.027 158.702C252.411 158.531 252.72 158.318 252.955 158.062V151.838H255.115V160.478H253.131L253.035 159.63C252.651 159.939 252.219 160.184 251.739 160.366C251.259 160.547 250.72 160.638 250.123 160.638ZM262.473 160.478C261.78 160.478 261.289 160.334 261.001 160.046C260.724 159.758 260.585 159.304 260.585 158.686V151.838H262.745V158.126C262.745 158.574 262.964 158.798 263.401 158.798H263.945V160.478H262.473ZM269.187 160.638C267.896 160.638 266.926 160.36 266.275 159.806C265.624 159.251 265.299 158.483 265.299 157.502V157.102C265.299 156.728 265.39 156.376 265.571 156.046C265.752 155.704 265.96 155.39 266.195 155.102C266.44 154.803 266.654 154.536 266.835 154.302C267.016 154.067 267.107 153.864 267.107 153.694C267.107 153.491 267.022 153.39 266.851 153.39C266.776 153.39 266.702 153.406 266.627 153.438C266.563 153.47 266.504 153.512 266.451 153.566V154.222H265.091V151.838H266.515V152.286C266.675 152.158 266.856 152.051 267.059 151.966C267.262 151.88 267.512 151.838 267.811 151.838C268.664 151.838 269.091 152.275 269.091 153.15C269.091 153.544 269.006 153.907 268.835 154.238C268.675 154.558 268.488 154.867 268.275 155.166C268.062 155.454 267.87 155.752 267.699 156.062C267.539 156.371 267.459 156.707 267.459 157.07V157.422C267.459 158.446 268.035 158.958 269.187 158.958C270.36 158.958 270.947 158.424 270.947 157.358V156.35C270.947 155.944 270.878 155.656 270.739 155.486C270.6 155.315 270.355 155.23 270.003 155.23H269.555L269.651 153.726H269.939C270.291 153.726 270.547 153.635 270.707 153.454C270.867 153.272 270.947 152.984 270.947 152.59V151.678H273.107V152.542C273.107 153.032 273.032 153.432 272.883 153.742C272.734 154.04 272.44 154.286 272.003 154.478C272.451 154.68 272.744 154.942 272.883 155.262C273.032 155.571 273.107 155.96 273.107 156.43V157.262C273.107 158.296 272.76 159.118 272.067 159.726C271.374 160.334 270.414 160.638 269.187 160.638ZM268.302 150.686C267.651 150.686 267.139 150.52 266.766 150.19C266.382 149.848 266.19 149.368 266.19 148.75C266.19 148.152 266.382 147.667 266.766 147.294C267.15 146.92 267.699 146.734 268.414 146.734H272.446L272.35 147.934H268.622C268.312 147.934 268.072 147.998 267.902 148.126C267.731 148.243 267.646 148.451 267.646 148.75C267.646 149.251 267.912 149.502 268.446 149.502C268.723 149.502 268.92 149.443 269.038 149.326C269.155 149.208 269.214 149.054 269.214 148.862V148.574H270.494V148.862C270.494 149.086 270.552 149.24 270.67 149.326C270.776 149.411 270.947 149.454 271.182 149.454H272.158V150.654H271.022C270.766 150.654 270.526 150.616 270.302 150.542C270.078 150.456 269.923 150.328 269.838 150.158C269.731 150.328 269.518 150.462 269.198 150.558C268.878 150.643 268.579 150.686 268.302 150.686ZM277.998 160.638C277.07 160.638 276.339 160.36 275.806 159.806C275.272 159.24 275.006 158.456 275.006 157.454V151.838H277.166V157.326C277.166 157.912 277.294 158.334 277.55 158.59C277.816 158.835 278.206 158.958 278.718 158.958C279.123 158.958 279.518 158.872 279.902 158.702C280.286 158.531 280.595 158.318 280.83 158.062V151.838H282.99V160.478H281.006L280.91 159.63C280.526 159.939 280.094 160.184 279.614 160.366C279.134 160.547 278.595 160.638 277.998 160.638ZM286.832 160.478C286.139 160.478 285.648 160.334 285.36 160.046C285.083 159.758 284.944 159.304 284.944 158.686V151.838H287.104V158.126C287.104 158.574 287.323 158.798 287.76 158.798H288.304V160.478H286.832ZM293.114 160.638C292.421 160.638 291.802 160.488 291.258 160.19C290.714 159.891 290.282 159.427 289.962 158.798C289.653 158.158 289.498 157.336 289.498 156.334C289.498 154.808 289.765 153.651 290.298 152.862C290.842 152.072 291.573 151.678 292.49 151.678C292.949 151.678 293.306 151.752 293.562 151.902C293.818 152.051 294.032 152.248 294.202 152.494C294.416 152.248 294.709 152.051 295.082 151.902C295.466 151.752 295.856 151.678 296.25 151.678C297.008 151.678 297.562 151.907 297.914 152.366C298.277 152.824 298.458 153.427 298.458 154.174V160.478H296.298V154.51C296.298 154.136 296.245 153.854 296.138 153.662C296.042 153.459 295.85 153.358 295.562 153.358C295.37 153.358 295.194 153.422 295.034 153.55C294.885 153.667 294.778 153.848 294.714 154.094H293.674C293.568 153.848 293.456 153.667 293.338 153.55C293.221 153.422 293.05 153.358 292.826 153.358C292.325 153.358 291.984 153.635 291.802 154.19C291.632 154.734 291.546 155.448 291.546 156.334C291.546 157.304 291.717 157.987 292.058 158.382C292.4 158.766 292.88 158.958 293.498 158.958C293.701 158.958 293.898 158.947 294.09 158.926C294.293 158.904 294.464 158.872 294.602 158.83V160.414C294.41 160.488 294.197 160.542 293.962 160.574C293.728 160.616 293.445 160.638 293.114 160.638ZM303.613 160.638C302.898 160.638 302.232 160.574 301.613 160.446C300.994 160.307 300.472 160.147 300.045 159.966V155.422H303.709L303.805 157.006H302.093V158.75C302.296 158.814 302.536 158.867 302.813 158.91C303.101 158.942 303.373 158.958 303.629 158.958C304.504 158.958 305.117 158.75 305.469 158.334C305.821 157.918 305.997 157.203 305.997 156.19C305.997 155.464 305.901 154.899 305.709 154.494C305.528 154.078 305.224 153.784 304.797 153.614C304.381 153.443 303.81 153.358 303.085 153.358C302.616 153.358 302.125 153.395 301.613 153.47C301.112 153.534 300.626 153.64 300.157 153.79V152.174C300.637 152.014 301.186 151.891 301.805 151.806C302.424 151.72 303.026 151.678 303.613 151.678C305.17 151.678 306.296 152.067 306.989 152.846C307.693 153.614 308.045 154.728 308.045 156.19C308.045 157.619 307.693 158.718 306.989 159.486C306.296 160.254 305.17 160.638 303.613 160.638ZM312.465 160.638C311.867 160.638 311.291 160.595 310.737 160.51C310.193 160.424 309.75 160.312 309.409 160.174V158.43C309.814 158.6 310.257 158.734 310.737 158.83C311.227 158.915 311.67 158.958 312.065 158.958C312.758 158.958 313.259 158.904 313.569 158.798C313.889 158.691 314.049 158.472 314.049 158.142C314.049 157.886 313.963 157.688 313.793 157.55C313.633 157.411 313.382 157.288 313.041 157.182C312.699 157.064 312.262 156.915 311.729 156.734C310.95 156.456 310.337 156.147 309.889 155.806C309.451 155.454 309.233 154.936 309.233 154.254C309.233 153.486 309.531 152.867 310.129 152.398C310.726 151.918 311.627 151.678 312.833 151.678C313.334 151.678 313.835 151.715 314.337 151.79C314.838 151.864 315.249 151.955 315.569 152.062V153.79C315.217 153.64 314.811 153.534 314.353 153.47C313.905 153.395 313.499 153.358 313.137 153.358C312.635 153.358 312.198 153.416 311.825 153.534C311.462 153.64 311.281 153.864 311.281 154.206C311.281 154.419 311.371 154.59 311.553 154.718C311.745 154.846 312.011 154.963 312.353 155.07C312.705 155.176 313.121 155.315 313.601 155.486C314.198 155.688 314.678 155.902 315.041 156.126C315.414 156.35 315.681 156.622 315.841 156.942C316.011 157.262 316.097 157.662 316.097 158.142C316.097 158.984 315.771 159.614 315.121 160.03C314.481 160.435 313.595 160.638 312.465 160.638ZM311.583 150.654V148.142H316.479L316.415 149.614H313.343V150.654H311.583Z" fill="#58585A"/>
<path d="M76.706 181.478V173.372H73.71V172.462H80.85V173.372H77.854V181.478H76.706ZM81.065 181.478V174.842H82.101L82.185 175.682C82.5116 175.467 82.8943 175.271 83.333 175.094C83.781 174.916 84.2196 174.786 84.649 174.702V175.598C84.3876 175.654 84.103 175.733 83.795 175.836C83.487 175.929 83.193 176.036 82.913 176.158C82.633 176.279 82.3996 176.405 82.213 176.536V181.478H81.065ZM87.539 181.618C87.119 181.618 86.7316 181.543 86.377 181.394C86.0223 181.244 85.7376 181.025 85.523 180.736C85.3083 180.437 85.201 180.064 85.201 179.616C85.201 179.009 85.4016 178.514 85.803 178.132C86.2043 177.74 86.8576 177.544 87.763 177.544H90.073V177.138C90.073 176.774 90.0216 176.484 89.919 176.27C89.8256 176.055 89.6436 175.901 89.373 175.808C89.1023 175.714 88.7056 175.668 88.183 175.668C87.7816 175.668 87.3943 175.7 87.021 175.766C86.6476 175.831 86.2976 175.92 85.971 176.032V175.08C86.2696 174.968 86.6196 174.879 87.021 174.814C87.4316 174.739 87.8703 174.702 88.337 174.702C89.2796 174.702 89.9843 174.893 90.451 175.276C90.927 175.658 91.165 176.279 91.165 177.138V181.478H90.199L90.115 180.722C89.8256 181.02 89.4756 181.244 89.065 181.394C88.6543 181.543 88.1456 181.618 87.539 181.618ZM87.833 180.68C88.3183 180.68 88.7476 180.596 89.121 180.428C89.4943 180.25 89.8116 180.012 90.073 179.714V178.426H87.791C87.2683 178.426 86.895 178.524 86.671 178.72C86.447 178.916 86.335 179.214 86.335 179.616C86.335 180.017 86.4703 180.297 86.741 180.456C87.0116 180.605 87.3756 180.68 87.833 180.68ZM93.0552 181.478V174.842H94.0912L94.1612 175.598C94.4785 175.336 94.8472 175.122 95.2672 174.954C95.6965 174.786 96.1865 174.702 96.7372 174.702C97.5772 174.702 98.1885 174.898 98.5712 175.29C98.9539 175.682 99.1452 176.298 99.1452 177.138V181.478H97.9972V177.18C97.9972 176.601 97.8805 176.2 97.6472 175.976C97.4139 175.742 96.9659 175.626 96.3032 175.626C95.8925 175.626 95.5052 175.7 95.1412 175.85C94.7772 175.999 94.4645 176.204 94.2032 176.466V181.478H93.0552ZM103.537 181.618C102.603 181.618 101.871 181.361 101.339 180.848C100.807 180.325 100.541 179.462 100.541 178.258C100.541 177.063 100.816 176.172 101.367 175.584C101.927 174.996 102.673 174.702 103.607 174.702C104.437 174.702 105.156 174.912 105.763 175.332V172.042H106.911V181.478H105.931L105.847 180.778C105.539 181.067 105.198 181.282 104.825 181.422C104.461 181.552 104.031 181.618 103.537 181.618ZM103.831 180.694C104.213 180.694 104.568 180.628 104.895 180.498C105.221 180.367 105.511 180.166 105.763 179.896V176.284C105.529 176.078 105.254 175.92 104.937 175.808C104.619 175.686 104.26 175.626 103.859 175.626C103.121 175.626 102.575 175.84 102.221 176.27C101.866 176.69 101.689 177.352 101.689 178.258C101.689 179.126 101.852 179.751 102.179 180.134C102.505 180.507 103.056 180.694 103.831 180.694ZM110.863 181.618C110.443 181.618 110.056 181.543 109.701 181.394C109.347 181.244 109.062 181.025 108.847 180.736C108.633 180.437 108.525 180.064 108.525 179.616C108.525 179.009 108.726 178.514 109.127 178.132C109.529 177.74 110.182 177.544 111.087 177.544H113.397V177.138C113.397 176.774 113.346 176.484 113.243 176.27C113.15 176.055 112.968 175.901 112.697 175.808C112.427 175.714 112.03 175.668 111.507 175.668C111.106 175.668 110.719 175.7 110.345 175.766C109.972 175.831 109.622 175.92 109.295 176.032V175.08C109.594 174.968 109.944 174.879 110.345 174.814C110.756 174.739 111.195 174.702 111.661 174.702C112.604 174.702 113.309 174.893 113.775 175.276C114.251 175.658 114.489 176.279 114.489 177.138V181.478H113.523L113.439 180.722C113.15 181.02 112.8 181.244 112.389 181.394C111.979 181.543 111.47 181.618 110.863 181.618ZM111.157 180.68C111.643 180.68 112.072 180.596 112.445 180.428C112.819 180.25 113.136 180.012 113.397 179.714V178.426H111.115C110.593 178.426 110.219 178.524 109.995 178.72C109.771 178.916 109.659 179.214 109.659 179.616C109.659 180.017 109.795 180.297 110.065 180.456C110.336 180.605 110.7 180.68 111.157 180.68ZM116.379 181.478V174.842H117.415L117.499 175.682C117.826 175.467 118.209 175.271 118.647 175.094C119.095 174.916 119.534 174.786 119.963 174.702V175.598C119.702 175.654 119.417 175.733 119.109 175.836C118.801 175.929 118.507 176.036 118.227 176.158C117.947 176.279 117.714 176.405 117.527 176.536V181.478H116.379ZM127.092 181.618C125.972 181.618 125.066 181.478 124.376 181.198V180.176C124.768 180.325 125.183 180.442 125.622 180.526C126.07 180.6 126.527 180.638 126.994 180.638C127.796 180.638 128.398 180.53 128.8 180.316C129.201 180.092 129.402 179.695 129.402 179.126C129.402 178.771 129.318 178.491 129.15 178.286C128.991 178.071 128.725 177.894 128.352 177.754C127.978 177.604 127.479 177.455 126.854 177.306C125.864 177.063 125.169 176.75 124.768 176.368C124.366 175.976 124.166 175.453 124.166 174.8C124.166 174.034 124.441 173.432 124.992 172.994C125.542 172.546 126.382 172.322 127.512 172.322C128.034 172.322 128.52 172.359 128.968 172.434C129.416 172.508 129.761 172.588 130.004 172.672V173.68C129.668 173.558 129.304 173.465 128.912 173.4C128.52 173.334 128.114 173.302 127.694 173.302C126.928 173.302 126.34 173.414 125.93 173.638C125.519 173.862 125.314 174.249 125.314 174.8C125.314 175.108 125.384 175.36 125.524 175.556C125.673 175.742 125.92 175.906 126.266 176.046C126.611 176.176 127.092 176.316 127.708 176.466C128.445 176.643 129.019 176.858 129.43 177.11C129.84 177.352 130.13 177.642 130.298 177.978C130.466 178.314 130.55 178.696 130.55 179.126C130.55 179.919 130.26 180.535 129.682 180.974C129.103 181.403 128.24 181.618 127.092 181.618ZM134.442 181.618C133.789 181.618 133.294 181.445 132.958 181.1C132.631 180.745 132.468 180.255 132.468 179.63V175.752H131.46V174.842H132.468V173.204L133.616 172.854V174.842H135.45L135.38 175.752H133.616V179.574C133.616 179.975 133.705 180.264 133.882 180.442C134.069 180.61 134.386 180.694 134.834 180.694C135.077 180.694 135.343 180.647 135.632 180.554V181.422C135.287 181.552 134.89 181.618 134.442 181.618ZM139.994 181.618C138.836 181.618 137.992 181.324 137.46 180.736C136.937 180.138 136.676 179.28 136.676 178.16C136.676 177.049 136.942 176.195 137.474 175.598C138.006 175 138.846 174.702 139.994 174.702C141.142 174.702 141.982 175 142.514 175.598C143.046 176.195 143.312 177.049 143.312 178.16C143.312 179.28 143.05 180.138 142.528 180.736C142.005 181.324 141.16 181.618 139.994 181.618ZM139.994 180.638C140.787 180.638 141.347 180.442 141.674 180.05C142 179.648 142.164 179.018 142.164 178.16C142.164 177.301 141.996 176.676 141.66 176.284C141.333 175.882 140.778 175.682 139.994 175.682C139.21 175.682 138.65 175.882 138.314 176.284C137.987 176.676 137.824 177.301 137.824 178.16C137.824 179.018 137.987 179.648 138.314 180.05C138.64 180.442 139.2 180.638 139.994 180.638ZM144.995 181.478V174.842H146.031L146.115 175.682C146.441 175.467 146.824 175.271 147.263 175.094C147.711 174.916 148.149 174.786 148.579 174.702V175.598C148.317 175.654 148.033 175.733 147.725 175.836C147.417 175.929 147.123 176.036 146.843 176.158C146.563 176.279 146.329 176.405 146.143 176.536V181.478H144.995ZM152.823 181.618C151.638 181.618 150.751 181.333 150.163 180.764C149.575 180.194 149.281 179.317 149.281 178.132C149.281 177.068 149.533 176.232 150.037 175.626C150.55 175.01 151.358 174.702 152.459 174.702C153.112 174.702 153.649 174.823 154.069 175.066C154.498 175.299 154.816 175.626 155.021 176.046C155.236 176.456 155.343 176.923 155.343 177.446V178.692H150.429C150.466 179.196 150.574 179.592 150.751 179.882C150.938 180.171 151.213 180.381 151.577 180.512C151.95 180.633 152.44 180.694 153.047 180.694C153.728 180.694 154.354 180.577 154.923 180.344V181.24C154.634 181.361 154.307 181.454 153.943 181.52C153.588 181.585 153.215 181.618 152.823 181.618ZM150.429 177.866H154.321V177.32C154.321 176.778 154.176 176.363 153.887 176.074C153.607 175.775 153.14 175.626 152.487 175.626C151.694 175.626 151.152 175.812 150.863 176.186C150.574 176.559 150.429 177.119 150.429 177.866ZM160.252 181.478V172.462H163.78C165.087 172.462 166.044 172.816 166.65 173.526C167.257 174.235 167.56 175.402 167.56 177.026C167.56 178.566 167.262 179.695 166.664 180.414C166.076 181.123 165.115 181.478 163.78 181.478H160.252ZM161.4 180.582H163.57C164.205 180.582 164.732 180.488 165.152 180.302C165.572 180.106 165.885 179.751 166.09 179.238C166.305 178.724 166.412 177.987 166.412 177.026C166.412 176.074 166.314 175.332 166.118 174.8C165.932 174.268 165.628 173.899 165.208 173.694C164.798 173.479 164.252 173.372 163.57 173.372H161.4V180.582ZM169.509 173.288V172.238H170.783V173.288H169.509ZM169.621 181.478V175.752H168.599L168.711 174.842H170.769V181.478H169.621ZM174.835 181.618C174.405 181.618 173.995 181.59 173.603 181.534C173.22 181.478 172.898 181.403 172.637 181.31V180.302C172.954 180.414 173.285 180.498 173.631 180.554C173.985 180.61 174.335 180.638 174.681 180.638C175.269 180.638 175.689 180.577 175.941 180.456C176.193 180.325 176.319 180.087 176.319 179.742C176.319 179.49 176.249 179.298 176.109 179.168C175.978 179.037 175.773 178.92 175.493 178.818C175.222 178.715 174.872 178.594 174.443 178.454C174.06 178.323 173.719 178.188 173.421 178.048C173.122 177.908 172.889 177.721 172.721 177.488C172.553 177.245 172.469 176.923 172.469 176.522C172.469 175.934 172.674 175.486 173.085 175.178C173.495 174.86 174.158 174.702 175.073 174.702C175.427 174.702 175.768 174.73 176.095 174.786C176.421 174.832 176.706 174.893 176.949 174.968V175.976C176.361 175.78 175.796 175.682 175.255 175.682C174.676 175.682 174.256 175.742 173.995 175.864C173.743 175.976 173.617 176.19 173.617 176.508C173.617 176.722 173.673 176.895 173.785 177.026C173.906 177.147 174.088 177.254 174.331 177.348C174.583 177.432 174.905 177.539 175.297 177.67C175.81 177.828 176.225 177.992 176.543 178.16C176.86 178.328 177.093 178.533 177.243 178.776C177.392 179.018 177.467 179.336 177.467 179.728C177.467 180.381 177.238 180.862 176.781 181.17C176.323 181.468 175.675 181.618 174.835 181.618ZM181.364 181.618C180.711 181.618 180.216 181.445 179.88 181.1C179.553 180.745 179.39 180.255 179.39 179.63V175.752H178.382V174.842H179.39V173.204L180.538 172.854V174.842H182.372L182.302 175.752H180.538V179.574C180.538 179.975 180.627 180.264 180.804 180.442C180.991 180.61 181.308 180.694 181.756 180.694C181.999 180.694 182.265 180.647 182.554 180.554V181.422C182.209 181.552 181.812 181.618 181.364 181.618ZM183.877 181.478V174.842H184.913L184.997 175.682C185.324 175.467 185.707 175.271 186.145 175.094C186.593 174.916 187.032 174.786 187.461 174.702V175.598C187.2 175.654 186.915 175.733 186.607 175.836C186.299 175.929 186.005 176.036 185.725 176.158C185.445 176.279 185.212 176.405 185.025 176.536V181.478H183.877ZM189.211 173.288V172.238H190.485V173.288H189.211ZM189.323 181.478V175.752H188.301L188.413 174.842H190.471V181.478H189.323ZM195.824 181.618C195.329 181.618 194.895 181.552 194.522 181.422C194.158 181.282 193.822 181.067 193.514 180.778L193.43 181.478H192.45V172.042H193.598V175.332C194.204 174.912 194.942 174.702 195.81 174.702C196.752 174.702 197.49 174.972 198.022 175.514C198.554 176.046 198.82 176.909 198.82 178.104C198.82 179.308 198.554 180.194 198.022 180.764C197.49 181.333 196.757 181.618 195.824 181.618ZM195.53 180.694C196.304 180.694 196.855 180.479 197.182 180.05C197.508 179.62 197.672 178.972 197.672 178.104C197.672 177.198 197.494 176.559 197.14 176.186C196.794 175.812 196.248 175.626 195.502 175.626C195.1 175.626 194.741 175.686 194.424 175.808C194.106 175.92 193.831 176.078 193.598 176.284V179.896C193.85 180.166 194.139 180.367 194.466 180.498C194.792 180.628 195.147 180.694 195.53 180.694ZM202.84 181.618C202.047 181.618 201.445 181.398 201.034 180.96C200.633 180.521 200.432 179.882 200.432 179.042V174.842H201.58V179.084C201.58 179.634 201.716 180.04 201.986 180.302C202.266 180.563 202.696 180.694 203.274 180.694C203.685 180.694 204.072 180.619 204.436 180.47C204.8 180.32 205.113 180.115 205.374 179.854V174.842H206.522V181.478H205.486L205.416 180.722C205.099 180.983 204.721 181.198 204.282 181.366C203.844 181.534 203.363 181.618 202.84 181.618ZM210.909 181.618C210.256 181.618 209.761 181.445 209.425 181.1C209.098 180.745 208.935 180.255 208.935 179.63V175.752H207.927V174.842H208.935V173.204L210.083 172.854V174.842H211.917L211.847 175.752H210.083V179.574C210.083 179.975 210.172 180.264 210.349 180.442C210.536 180.61 210.853 180.694 211.301 180.694C211.544 180.694 211.81 180.647 212.099 180.554V181.422C211.754 181.552 211.357 181.618 210.909 181.618ZM213.779 173.288V172.238H215.053V173.288H213.779ZM213.891 181.478V175.752H212.869L212.981 174.842H215.039V181.478H213.891ZM220.056 181.618C218.899 181.618 218.054 181.324 217.522 180.736C216.999 180.138 216.738 179.28 216.738 178.16C216.738 177.049 217.004 176.195 217.536 175.598C218.068 175 218.908 174.702 220.056 174.702C221.204 174.702 222.044 175 222.576 175.598C223.108 176.195 223.374 177.049 223.374 178.16C223.374 179.28 223.113 180.138 222.59 180.736C222.067 181.324 221.223 181.618 220.056 181.618ZM220.056 180.638C220.849 180.638 221.409 180.442 221.736 180.05C222.063 179.648 222.226 179.018 222.226 178.16C222.226 177.301 222.058 176.676 221.722 176.284C221.395 175.882 220.84 175.682 220.056 175.682C219.272 175.682 218.712 175.882 218.376 176.284C218.049 176.676 217.886 177.301 217.886 178.16C217.886 179.018 218.049 179.648 218.376 180.05C218.703 180.442 219.263 180.638 220.056 180.638ZM225.057 181.478V174.842H226.093L226.163 175.598C226.48 175.336 226.849 175.122 227.269 174.954C227.698 174.786 228.188 174.702 228.739 174.702C229.579 174.702 230.19 174.898 230.573 175.29C230.956 175.682 231.147 176.298 231.147 177.138V181.478H229.999V177.18C229.999 176.601 229.882 176.2 229.649 175.976C229.416 175.742 228.968 175.626 228.305 175.626C227.894 175.626 227.507 175.7 227.143 175.85C226.779 175.999 226.466 176.204 226.205 176.466V181.478H225.057ZM240.314 181.618C239.343 181.618 238.536 181.436 237.892 181.072C237.257 180.698 236.781 180.18 236.464 179.518C236.147 178.846 235.988 178.062 235.988 177.166C235.988 176.186 236.137 175.332 236.436 174.604C236.735 173.876 237.201 173.316 237.836 172.924C238.471 172.522 239.292 172.322 240.3 172.322C240.823 172.322 241.294 172.359 241.714 172.434C242.143 172.508 242.545 172.611 242.918 172.742V173.75C242.545 173.61 242.148 173.502 241.728 173.428C241.308 173.344 240.865 173.302 240.398 173.302C239.586 173.302 238.942 173.456 238.466 173.764C237.99 174.072 237.649 174.515 237.444 175.094C237.239 175.672 237.136 176.363 237.136 177.166C237.136 178.276 237.397 179.135 237.92 179.742C238.452 180.339 239.287 180.638 240.426 180.638C240.846 180.638 241.271 180.605 241.7 180.54C242.139 180.474 242.545 180.372 242.918 180.232V181.254C242.554 181.366 242.157 181.454 241.728 181.52C241.308 181.585 240.837 181.618 240.314 181.618ZM247.856 181.618C246.671 181.618 245.784 181.333 245.196 180.764C244.608 180.194 244.314 179.317 244.314 178.132C244.314 177.068 244.566 176.232 245.07 175.626C245.584 175.01 246.391 174.702 247.492 174.702C248.146 174.702 248.682 174.823 249.102 175.066C249.532 175.299 249.849 175.626 250.054 176.046C250.269 176.456 250.376 176.923 250.376 177.446V178.692H245.462C245.5 179.196 245.607 179.592 245.784 179.882C245.971 180.171 246.246 180.381 246.61 180.512C246.984 180.633 247.474 180.694 248.08 180.694C248.762 180.694 249.387 180.577 249.956 180.344V181.24C249.667 181.361 249.34 181.454 248.976 181.52C248.622 181.585 248.248 181.618 247.856 181.618ZM245.462 177.866H249.354V177.32C249.354 176.778 249.21 176.363 248.92 176.074C248.64 175.775 248.174 175.626 247.52 175.626C246.727 175.626 246.186 175.812 245.896 176.186C245.607 176.559 245.462 177.119 245.462 177.866ZM252.059 181.478V174.842H253.095L253.165 175.598C253.482 175.336 253.851 175.122 254.271 174.954C254.7 174.786 255.19 174.702 255.741 174.702C256.581 174.702 257.192 174.898 257.575 175.29C257.958 175.682 258.149 176.298 258.149 177.138V181.478H257.001V177.18C257.001 176.601 256.884 176.2 256.651 175.976C256.418 175.742 255.97 175.626 255.307 175.626C254.896 175.626 254.509 175.7 254.145 175.85C253.781 175.999 253.468 176.204 253.207 176.466V181.478H252.059ZM262.465 181.618C261.812 181.618 261.317 181.445 260.981 181.1C260.655 180.745 260.491 180.255 260.491 179.63V175.752H259.483V174.842H260.491V173.204L261.639 172.854V174.842H263.473L263.403 175.752H261.639V179.574C261.639 179.975 261.728 180.264 261.905 180.442C262.092 180.61 262.409 180.694 262.857 180.694C263.1 180.694 263.366 180.647 263.655 180.554V181.422C263.31 181.552 262.913 181.618 262.465 181.618ZM268.241 181.618C267.056 181.618 266.169 181.333 265.581 180.764C264.993 180.194 264.699 179.317 264.699 178.132C264.699 177.068 264.951 176.232 265.455 175.626C265.968 175.01 266.776 174.702 267.877 174.702C268.53 174.702 269.067 174.823 269.487 175.066C269.916 175.299 270.234 175.626 270.439 176.046C270.654 176.456 270.761 176.923 270.761 177.446V178.692H265.847C265.884 179.196 265.992 179.592 266.169 179.882C266.356 180.171 266.631 180.381 266.995 180.512C267.368 180.633 267.858 180.694 268.465 180.694C269.146 180.694 269.772 180.577 270.341 180.344V181.24C270.052 181.361 269.725 181.454 269.361 181.52C269.006 181.585 268.633 181.618 268.241 181.618ZM265.847 177.866H269.739V177.32C269.739 176.778 269.594 176.363 269.305 176.074C269.025 175.775 268.558 175.626 267.905 175.626C267.112 175.626 266.57 175.812 266.281 176.186C265.992 176.559 265.847 177.119 265.847 177.866ZM272.444 181.478V174.842H273.48L273.564 175.682C273.891 175.467 274.273 175.271 274.712 175.094C275.16 174.916 275.599 174.786 276.028 174.702V175.598C275.767 175.654 275.482 175.733 275.174 175.836C274.866 175.929 274.572 176.036 274.292 176.158C274.012 176.279 273.779 176.405 273.592 176.536V181.478H272.444ZM282.148 182.486C281.672 182.075 281.294 181.58 281.014 181.002C280.734 180.423 280.534 179.807 280.412 179.154C280.291 178.491 280.23 177.852 280.23 177.236C280.23 176.62 280.291 175.985 280.412 175.332C280.534 174.678 280.734 174.062 281.014 173.484C281.294 172.896 281.672 172.396 282.148 171.986H283.45C282.713 172.611 282.181 173.372 281.854 174.268C281.537 175.164 281.378 176.153 281.378 177.236C281.378 178.328 281.537 179.317 281.854 180.204C282.181 181.09 282.713 181.851 283.45 182.486H282.148ZM287.28 181.478V173.372H284.284V172.462H291.424V173.372H288.428V181.478H287.28ZM294.914 181.618C293.794 181.618 292.889 181.478 292.198 181.198V180.176C292.59 180.325 293.005 180.442 293.444 180.526C293.892 180.6 294.349 180.638 294.816 180.638C295.619 180.638 296.221 180.53 296.622 180.316C297.023 180.092 297.224 179.695 297.224 179.126C297.224 178.771 297.14 178.491 296.972 178.286C296.813 178.071 296.547 177.894 296.174 177.754C295.801 177.604 295.301 177.455 294.676 177.306C293.687 177.063 292.991 176.75 292.59 176.368C292.189 175.976 291.988 175.453 291.988 174.8C291.988 174.034 292.263 173.432 292.814 172.994C293.365 172.546 294.205 172.322 295.334 172.322C295.857 172.322 296.342 172.359 296.79 172.434C297.238 172.508 297.583 172.588 297.826 172.672V173.68C297.49 173.558 297.126 173.465 296.734 173.4C296.342 173.334 295.936 173.302 295.516 173.302C294.751 173.302 294.163 173.414 293.752 173.638C293.341 173.862 293.136 174.249 293.136 174.8C293.136 175.108 293.206 175.36 293.346 175.556C293.495 175.742 293.743 175.906 294.088 176.046C294.433 176.176 294.914 176.316 295.53 176.466C296.267 176.643 296.841 176.858 297.252 177.11C297.663 177.352 297.952 177.642 298.12 177.978C298.288 178.314 298.372 178.696 298.372 179.126C298.372 179.919 298.083 180.535 297.504 180.974C296.925 181.403 296.062 181.618 294.914 181.618ZM300.047 181.478V172.462H303.575C304.882 172.462 305.839 172.816 306.445 173.526C307.052 174.235 307.355 175.402 307.355 177.026C307.355 178.566 307.057 179.695 306.459 180.414C305.871 181.123 304.91 181.478 303.575 181.478H300.047ZM301.195 180.582H303.365C304 180.582 304.527 180.488 304.947 180.302C305.367 180.106 305.68 179.751 305.885 179.238C306.1 178.724 306.207 177.987 306.207 177.026C306.207 176.074 306.109 175.332 305.913 174.8C305.727 174.268 305.423 173.899 305.003 173.694C304.593 173.479 304.047 173.372 303.365 173.372H301.195V180.582ZM313.076 181.618C312.105 181.618 311.298 181.436 310.654 181.072C310.019 180.698 309.543 180.18 309.226 179.518C308.908 178.846 308.75 178.062 308.75 177.166C308.75 176.186 308.899 175.332 309.198 174.604C309.496 173.876 309.963 173.316 310.598 172.924C311.232 172.522 312.054 172.322 313.062 172.322C313.584 172.322 314.056 172.359 314.476 172.434C314.905 172.508 315.306 172.611 315.68 172.742V173.75C315.306 173.61 314.91 173.502 314.49 173.428C314.07 173.344 313.626 173.302 313.16 173.302C312.348 173.302 311.704 173.456 311.228 173.764C310.752 174.072 310.411 174.515 310.206 175.094C310 175.672 309.898 176.363 309.898 177.166C309.898 178.276 310.159 179.135 310.682 179.742C311.214 180.339 312.049 180.638 313.188 180.638C313.608 180.638 314.032 180.605 314.462 180.54C314.9 180.474 315.306 180.372 315.68 180.232V181.254C315.316 181.366 314.919 181.454 314.49 181.52C314.07 181.585 313.598 181.618 313.076 181.618ZM316.796 182.486C317.543 181.851 318.075 181.09 318.392 180.204C318.709 179.317 318.868 178.328 318.868 177.236C318.868 176.153 318.709 175.164 318.392 174.268C318.075 173.372 317.543 172.611 316.796 171.986H318.112C318.588 172.396 318.966 172.896 319.246 173.484C319.526 174.062 319.722 174.678 319.834 175.332C319.955 175.985 320.016 176.62 320.016 177.236C320.016 177.852 319.955 178.491 319.834 179.154C319.722 179.807 319.526 180.423 319.246 181.002C318.966 181.58 318.588 182.075 318.112 182.486H316.796Z" fill="#F28C1F"/>
</g>
<defs>
<filter id="filter0_d_361_192" x="-3" y="0" width="400" height="237.978" filterUnits="userSpaceOnUse" color-interpolation-filters="sRGB">
<feFlood flood-opacity="0" result="BackgroundImageFix"/>
<feColorMatrix in="SourceAlpha" type="matrix" values="0 0 0 0 0 0 0 0 0 0 0 0 0 0 0 0 0 0 127 0" result="hardAlpha"/>
<feOffset dy="4"/>
<feGaussianBlur stdDeviation="12.5"/>
<feComposite in2="hardAlpha" operator="out"/>
<feColorMatrix type="matrix" values="0 0 0 0 0 0 0 0 0 0 0 0 0 0 0 0 0 0 0.25 0"/>
<feBlend mode="normal" in2="BackgroundImageFix" result="effect1_dropShadow_361_192"/>
<feBlend mode="normal" in="SourceGraphic" in2="effect1_dropShadow_361_192" result="shape"/>
</filter>
<filter id="filter1_d_361_192" x="141.979" y="41.5" width="110.042" height="90.9778" filterUnits="userSpaceOnUse" color-interpolation-filters="sRGB">
<feFlood flood-opacity="0" result="BackgroundImageFix"/>
<feColorMatrix in="SourceAlpha" type="matrix" values="0 0 0 0 0 0 0 0 0 0 0 0 0 0 0 0 0 0 127 0" result="hardAlpha"/>
<feOffset dy="2"/>
<feGaussianBlur stdDeviation="1.5"/>
<feComposite in2="hardAlpha" operator="out"/>
<feColorMatrix type="matrix" values="0 0 0 0 0 0 0 0 0 0 0 0 0 0 0 0 0 0 0.2 0"/>
<feBlend mode="normal" in2="BackgroundImageFix" result="effect1_dropShadow_361_192"/>
<feBlend mode="normal" in="SourceGraphic" in2="effect1_dropShadow_361_192" result="shape"/>
</filter>
<linearGradient id="paint0_linear_361_192" x1="197" y1="42.5" x2="197" y2="127.478" gradientUnits="userSpaceOnUse">
<stop offset="0.442308" stop-color="#FF8100"/>
<stop offset="1" stop-color="#FFD800"/>
</linearGradient>
</defs>
</svg>
