<svg width="393" height="238" viewBox="0 0 393 238" fill="none" xmlns="http://www.w3.org/2000/svg">
<g filter="url(#filter0_d_361_186)">
<rect x="22" y="21" width="350" height="187.999" rx="15" fill="white" shape-rendering="crispEdges"/>
<g filter="url(#filter1_d_361_186)">
<path fill-rule="evenodd" clip-rule="evenodd" d="M164.938 80.2348V117.97H169.131H173.324V107.928C173.324 98.2076 173.349 97.863 174.125 97.1601C174.844 96.5091 175.682 96.4218 182.225 96.3144C190.317 96.1817 191.702 96.3254 192.784 97.4083C193.48 98.1043 193.525 98.7523 193.525 108.059V117.97H197.718H201.911V80.2348V42.5H183.425H164.938V80.2348ZM177.898 53.7442V57.3652H175.23H172.562V53.7442V50.1232H175.23H177.898V53.7442ZM193.907 53.7442V57.3652H191.429H188.951V53.7442V50.1232H191.429H193.907V53.7442ZM206.485 90.1449V118.732H208.166C209.827 118.732 209.852 118.713 210.102 117.23C210.529 114.703 212.74 110.632 215.029 108.159L217.199 105.816L216.592 104.641C215.543 102.614 215.169 99.5649 215.645 96.9383C216.694 91.1527 220.518 87.3121 226.328 86.2079L228.592 85.7776V73.6678V61.558H217.538H206.485V90.1449ZM177.898 69.3717V72.9927H175.23H172.562V69.3717V65.7507H175.23H177.898V69.3717ZM193.907 69.3717V72.9927H191.429H188.951V69.3717V65.7507H191.429H193.907V69.3717ZM220.969 72.8022V76.4232H218.301H215.633V72.8022V69.1812H218.301H220.969V72.8022ZM177.898 85.1898V89.0014H175.23H172.562V85.1898V81.3783H175.23H177.898V85.1898ZM193.907 85.1898V89.0014H191.429H188.951V85.1898V81.3783H191.429H193.907V85.1898ZM225.123 92.0259C222.118 93.6611 220.237 97.1148 220.779 100.003C221.414 103.389 223.562 105.742 226.748 106.543C231.701 107.788 236.692 103.407 236.118 98.3177C235.662 94.2698 232.86 91.5941 228.87 91.3966C227.07 91.3078 226.164 91.4599 225.123 92.0259ZM178.533 101.834C178.393 101.973 178.279 105.661 178.279 110.029V117.97H183.234H188.189V109.775V101.58H183.488C180.903 101.58 178.673 101.694 178.533 101.834ZM218.135 111.884C215.259 114.959 214.724 116.537 214.557 122.448L214.414 127.499H228.027H241.64L241.469 122.448C241.322 118.061 241.171 117.116 240.324 115.254C239.26 112.915 236.828 109.965 235.965 109.965C235.667 109.965 234.74 110.313 233.907 110.739C230.532 112.46 225.857 112.443 222.434 110.697C221.645 110.295 220.758 109.965 220.465 109.965C220.17 109.965 219.122 110.829 218.135 111.884ZM152.36 124.83V127.499H181.138H209.915V124.83V122.162H181.138H152.36V124.83Z" fill="url(#paint0_linear_361_186)"/>
</g>
<path d="M65.7565 160.499C65.0632 160.499 64.5725 160.355 64.2845 160.067C64.0072 159.779 63.8685 159.325 63.8685 158.707V151.859H66.0285V158.147C66.0285 158.595 66.2472 158.819 66.6845 158.819H67.2285V160.499H65.7565ZM61.6605 160.499C60.9672 160.499 60.4765 160.355 60.1885 160.067C59.9112 159.779 59.7725 159.325 59.7725 158.707V151.859H61.9325V158.147C61.9325 158.595 62.1512 158.819 62.5885 158.819H63.1325V160.499H61.6605ZM68.7089 160.499V151.859H70.6929L70.7889 152.707C71.1729 152.397 71.6155 152.152 72.1169 151.971C72.6289 151.789 73.1835 151.699 73.7809 151.699C74.6875 151.699 75.3969 151.976 75.9089 152.531C76.4315 153.085 76.6929 153.848 76.6929 154.819V160.499H74.5329V154.947C74.5329 154.392 74.3995 153.992 74.1329 153.747C73.8769 153.501 73.4929 153.379 72.9809 153.379C72.5862 153.379 72.1915 153.464 71.7969 153.635C71.4129 153.805 71.1035 154.019 70.8689 154.275V160.499H68.7089ZM81.5115 160.659C80.9142 160.659 80.3382 160.616 79.7835 160.531C79.2395 160.445 78.7968 160.333 78.4555 160.195V158.451C78.8608 158.621 79.3035 158.755 79.7835 158.851C80.2742 158.936 80.7168 158.979 81.1115 158.979C81.8048 158.979 82.3062 158.925 82.6155 158.819C82.9355 158.712 83.0955 158.493 83.0955 158.163C83.0955 157.907 83.0102 157.709 82.8395 157.571C82.6795 157.432 82.4288 157.309 82.0875 157.203C81.7462 157.085 81.3088 156.936 80.7755 156.755C79.9968 156.477 79.3835 156.168 78.9355 155.827C78.4982 155.475 78.2795 154.957 78.2795 154.275C78.2795 153.507 78.5782 152.888 79.1755 152.419C79.7728 151.939 80.6742 151.699 81.8795 151.699C82.3808 151.699 82.8822 151.736 83.3835 151.811C83.8848 151.885 84.2955 151.976 84.6155 152.083V153.811C84.2635 153.661 83.8582 153.555 83.3995 153.491C82.9515 153.416 82.5462 153.379 82.1835 153.379C81.6822 153.379 81.2448 153.437 80.8715 153.555C80.5088 153.661 80.3275 153.885 80.3275 154.227C80.3275 154.44 80.4182 154.611 80.5995 154.739C80.7915 154.867 81.0582 154.984 81.3995 155.091C81.7515 155.197 82.1675 155.336 82.6475 155.507C83.2448 155.709 83.7248 155.923 84.0875 156.147C84.4608 156.371 84.7275 156.643 84.8875 156.963C85.0582 157.283 85.1435 157.683 85.1435 158.163C85.1435 159.005 84.8182 159.635 84.1675 160.051C83.5275 160.456 82.6422 160.659 81.5115 160.659ZM89.6384 160.659C88.7104 160.659 87.9797 160.381 87.4464 159.827C86.913 159.261 86.6464 158.477 86.6464 157.475V151.859H88.8064V157.347C88.8064 157.933 88.9344 158.355 89.1904 158.611C89.457 158.856 89.8464 158.979 90.3584 158.979C90.7637 158.979 91.1584 158.893 91.5424 158.723C91.9264 158.552 92.2357 158.339 92.4704 158.083V151.859H94.6304V160.499H92.6464L92.5504 159.651C92.1664 159.96 91.7344 160.205 91.2544 160.387C90.7744 160.568 90.2357 160.659 89.6384 160.659ZM99.833 160.659C99.1397 160.659 98.521 160.509 97.977 160.211C97.433 159.912 97.001 159.448 96.681 158.819C96.3717 158.179 96.217 157.357 96.217 156.355C96.217 154.883 96.5957 153.741 97.353 152.931C98.121 152.109 99.2463 151.699 100.729 151.699C101.764 151.699 102.601 151.875 103.241 152.227C103.881 152.568 104.345 153.011 104.633 153.555C104.932 154.099 105.081 154.675 105.081 155.283V160.499H102.921V155.427C102.921 155.021 102.857 154.669 102.729 154.371C102.601 154.061 102.372 153.821 102.041 153.651C101.721 153.469 101.273 153.379 100.697 153.379C99.0757 153.379 98.265 154.371 98.265 156.355C98.265 157.325 98.4357 158.008 98.777 158.403C99.1183 158.787 99.5983 158.979 100.217 158.979C100.42 158.979 100.617 158.968 100.809 158.947C101.012 158.925 101.182 158.893 101.321 158.851V160.435C101.129 160.509 100.916 160.563 100.681 160.595C100.446 160.637 100.164 160.659 99.833 160.659ZM110.046 160.499V155.187C110.046 154.611 109.934 154.168 109.71 153.859C109.486 153.539 109.038 153.379 108.366 153.379C108.014 153.379 107.641 153.421 107.246 153.507C106.851 153.581 106.499 153.677 106.19 153.795V152.211C106.51 152.061 106.905 151.939 107.374 151.843C107.843 151.747 108.313 151.699 108.782 151.699C109.998 151.699 110.873 151.96 111.406 152.483C111.939 152.995 112.206 153.795 112.206 154.883V160.499H110.046ZM117.027 160.659C116.43 160.659 115.854 160.616 115.299 160.531C114.755 160.445 114.312 160.333 113.971 160.195V158.451C114.376 158.621 114.819 158.755 115.299 158.851C115.79 158.936 116.232 158.979 116.627 158.979C117.32 158.979 117.822 158.925 118.131 158.819C118.451 158.712 118.611 158.493 118.611 158.163C118.611 157.907 118.526 157.709 118.355 157.571C118.195 157.432 117.944 157.309 117.603 157.203C117.262 157.085 116.824 156.936 116.291 156.755C115.512 156.477 114.899 156.168 114.451 155.827C114.014 155.475 113.795 154.957 113.795 154.275C113.795 153.507 114.094 152.888 114.691 152.419C115.288 151.939 116.19 151.699 117.395 151.699C117.896 151.699 118.398 151.736 118.899 151.811C119.4 151.885 119.811 151.976 120.131 152.083V153.811C119.779 153.661 119.374 153.555 118.915 153.491C118.467 153.416 118.062 153.379 117.699 153.379C117.198 153.379 116.76 153.437 116.387 153.555C116.024 153.661 115.843 153.885 115.843 154.227C115.843 154.44 115.934 154.611 116.115 154.739C116.307 154.867 116.574 154.984 116.915 155.091C117.267 155.197 117.683 155.336 118.163 155.507C118.76 155.709 119.24 155.923 119.603 156.147C119.976 156.371 120.243 156.643 120.403 156.963C120.574 157.283 120.659 157.683 120.659 158.163C120.659 159.005 120.334 159.635 119.683 160.051C119.043 160.456 118.158 160.659 117.027 160.659ZM116.146 150.675V148.163H121.042L120.978 149.635H117.906V150.675H116.146ZM128.926 160.659C128.211 160.659 127.544 160.595 126.926 160.467C126.307 160.328 125.784 160.168 125.358 159.987V155.443H129.022L129.118 157.027H127.406V158.771C127.608 158.835 127.848 158.888 128.126 158.931C128.414 158.963 128.686 158.979 128.942 158.979C129.816 158.979 130.43 158.771 130.782 158.355C131.134 157.939 131.31 157.224 131.31 156.211C131.31 155.485 131.214 154.92 131.022 154.515C130.84 154.099 130.536 153.805 130.11 153.635C129.694 153.464 129.123 153.379 128.398 153.379C127.928 153.379 127.438 153.416 126.926 153.491C126.424 153.555 125.939 153.661 125.47 153.811V152.195C125.95 152.035 126.499 151.912 127.118 151.827C127.736 151.741 128.339 151.699 128.926 151.699C130.483 151.699 131.608 152.088 132.302 152.867C133.006 153.635 133.358 154.749 133.358 156.211C133.358 157.64 133.006 158.739 132.302 159.507C131.608 160.275 130.483 160.659 128.926 160.659ZM125.969 150.675L126.081 149.203H132.961V150.675H125.969ZM137.857 160.659C136.929 160.659 136.198 160.381 135.665 159.827C135.132 159.261 134.865 158.477 134.865 157.475V151.859H137.025V157.347C137.025 157.933 137.153 158.355 137.409 158.611C137.676 158.856 138.065 158.979 138.577 158.979C138.982 158.979 139.377 158.893 139.761 158.723C140.145 158.552 140.454 158.339 140.689 158.083V151.859H142.849V160.499H140.865L140.769 159.651C140.385 159.96 139.953 160.205 139.473 160.387C138.993 160.568 138.454 160.659 137.857 160.659ZM146.692 160.499C145.998 160.499 145.508 160.355 145.22 160.067C144.942 159.779 144.804 159.325 144.804 158.707V151.859H146.964V158.147C146.964 158.595 147.182 158.819 147.62 158.819H148.164V160.499H146.692ZM152.974 160.659C152.28 160.659 151.662 160.509 151.118 160.211C150.574 159.912 150.142 159.448 149.822 158.819C149.512 158.179 149.358 157.357 149.358 156.355C149.358 154.829 149.624 153.672 150.158 152.883C150.702 152.093 151.432 151.699 152.35 151.699C152.808 151.699 153.166 151.773 153.422 151.923C153.678 152.072 153.891 152.269 154.062 152.515C154.275 152.269 154.568 152.072 154.942 151.923C155.326 151.773 155.715 151.699 156.11 151.699C156.867 151.699 157.422 151.928 157.774 152.387C158.136 152.845 158.318 153.448 158.318 154.195V160.499H156.158V154.531C156.158 154.157 156.104 153.875 155.998 153.683C155.902 153.48 155.71 153.379 155.422 153.379C155.23 153.379 155.054 153.443 154.894 153.571C154.744 153.688 154.638 153.869 154.574 154.115H153.534C153.427 153.869 153.315 153.688 153.198 153.571C153.08 153.443 152.91 153.379 152.686 153.379C152.184 153.379 151.843 153.656 151.662 154.211C151.491 154.755 151.406 155.469 151.406 156.355C151.406 157.325 151.576 158.008 151.918 158.403C152.259 158.787 152.739 158.979 153.358 158.979C153.56 158.979 153.758 158.968 153.95 158.947C154.152 158.925 154.323 158.893 154.462 158.851V160.435C154.27 160.509 154.056 160.563 153.822 160.595C153.587 160.637 153.304 160.659 152.974 160.659ZM163.473 160.659C162.758 160.659 162.091 160.595 161.473 160.467C160.854 160.328 160.331 160.168 159.905 159.987V155.443H163.569L163.665 157.027H161.953V158.771C162.155 158.835 162.395 158.888 162.673 158.931C162.961 158.963 163.233 158.979 163.489 158.979C164.363 158.979 164.977 158.771 165.329 158.355C165.681 157.939 165.857 157.224 165.857 156.211C165.857 155.485 165.761 154.92 165.569 154.515C165.387 154.099 165.083 153.805 164.657 153.635C164.241 153.464 163.67 153.379 162.945 153.379C162.475 153.379 161.985 153.416 161.473 153.491C160.971 153.555 160.486 153.661 160.017 153.811V152.195C160.497 152.035 161.046 151.912 161.664 151.827C162.283 151.741 162.886 151.699 163.473 151.699C165.03 151.699 166.155 152.088 166.849 152.867C167.553 153.635 167.905 154.749 167.905 156.211C167.905 157.64 167.553 158.739 166.849 159.507C166.155 160.275 165.03 160.659 163.473 160.659ZM172.324 160.659C171.727 160.659 171.151 160.616 170.596 160.531C170.052 160.445 169.609 160.333 169.268 160.195V158.451C169.673 158.621 170.116 158.755 170.596 158.851C171.087 158.936 171.529 158.979 171.924 158.979C172.617 158.979 173.119 158.925 173.428 158.819C173.748 158.712 173.908 158.493 173.908 158.163C173.908 157.907 173.823 157.709 173.652 157.571C173.492 157.432 173.241 157.309 172.9 157.203C172.559 157.085 172.121 156.936 171.588 156.755C170.809 156.477 170.196 156.168 169.748 155.827C169.311 155.475 169.092 154.957 169.092 154.275C169.092 153.507 169.391 152.888 169.988 152.419C170.585 151.939 171.487 151.699 172.692 151.699C173.193 151.699 173.695 151.736 174.196 151.811C174.697 151.885 175.108 151.976 175.428 152.083V153.811C175.076 153.661 174.671 153.555 174.212 153.491C173.764 153.416 173.359 153.379 172.996 153.379C172.495 153.379 172.057 153.437 171.684 153.555C171.321 153.661 171.14 153.885 171.14 154.227C171.14 154.44 171.231 154.611 171.412 154.739C171.604 154.867 171.871 154.984 172.212 155.091C172.564 155.197 172.98 155.336 173.46 155.507C174.057 155.709 174.537 155.923 174.9 156.147C175.273 156.371 175.54 156.643 175.7 156.963C175.871 157.283 175.956 157.683 175.956 158.163C175.956 159.005 175.631 159.635 174.98 160.051C174.34 160.456 173.455 160.659 172.324 160.659ZM171.443 150.675V148.163H176.339L176.275 149.635H173.203V150.675H171.443ZM179.395 160.499C178.702 160.499 178.211 160.355 177.923 160.067C177.646 159.779 177.507 159.325 177.507 158.707V151.859H179.667V158.147C179.667 158.595 179.886 158.819 180.323 158.819H180.867V160.499H179.395ZM185.373 160.659C184.445 160.659 183.714 160.381 183.181 159.827C182.647 159.261 182.381 158.477 182.381 157.475V151.859H184.541V157.347C184.541 157.933 184.669 158.355 184.925 158.611C185.191 158.856 185.581 158.979 186.093 158.979C186.498 158.979 186.893 158.893 187.277 158.723C187.661 158.552 187.97 158.339 188.205 158.083V151.859H190.365V160.499H188.381L188.285 159.651C187.901 159.96 187.469 160.205 186.989 160.387C186.509 160.568 185.97 160.659 185.373 160.659ZM195.999 160.659C194.709 160.659 193.738 160.36 193.087 159.763C192.437 159.165 192.111 158.349 192.111 157.315V156.771C192.111 156.408 192.181 156.083 192.319 155.795C192.458 155.507 192.613 155.251 192.783 155.027C192.965 154.803 193.125 154.595 193.263 154.403C193.402 154.211 193.471 154.029 193.471 153.859C193.471 153.699 193.434 153.592 193.359 153.539C193.285 153.485 193.151 153.459 192.959 153.459H191.919L192.095 151.859H194.335C195.221 151.859 195.663 152.269 195.663 153.091C195.663 153.453 195.594 153.784 195.455 154.083C195.317 154.371 195.151 154.648 194.959 154.915C194.778 155.181 194.618 155.464 194.479 155.763C194.341 156.051 194.271 156.381 194.271 156.755V157.443C194.271 158.467 194.847 158.979 195.999 158.979C197.173 158.979 197.759 158.445 197.759 157.379V156.371C197.759 155.965 197.69 155.677 197.551 155.507C197.413 155.336 197.167 155.251 196.815 155.251H196.367L196.463 153.747H196.751C197.103 153.747 197.359 153.656 197.519 153.475C197.679 153.293 197.759 153.005 197.759 152.611V151.699H199.919V152.563C199.919 153.053 199.845 153.453 199.695 153.763C199.546 154.061 199.253 154.307 198.815 154.499C199.263 154.701 199.557 154.963 199.695 155.283C199.845 155.592 199.919 155.981 199.919 156.451V157.283C199.919 158.317 199.573 159.139 198.879 159.747C198.186 160.355 197.226 160.659 195.999 160.659ZM195.802 150.675V148.131H197.562V149.203H201.546L201.466 150.675H195.802ZM198.074 147.219V144.979H199.834V147.219H198.074ZM204.81 160.659C203.882 160.659 203.152 160.381 202.618 159.827C202.085 159.261 201.818 158.477 201.818 157.475V151.859H203.978V157.347C203.978 157.933 204.106 158.355 204.362 158.611C204.629 158.856 205.018 158.979 205.53 158.979C205.936 158.979 206.33 158.893 206.714 158.723C207.098 158.552 207.408 158.339 207.642 158.083V151.859H209.802V160.499H207.818L207.722 159.651C207.338 159.96 206.906 160.205 206.426 160.387C205.946 160.568 205.408 160.659 204.81 160.659ZM217.741 160.499C217.048 160.499 216.557 160.355 216.269 160.067C215.992 159.779 215.853 159.325 215.853 158.707V151.859H218.013V158.147C218.013 158.595 218.232 158.819 218.669 158.819H219.213V160.499H217.741ZM213.645 160.499C212.952 160.499 212.461 160.355 212.173 160.067C211.896 159.779 211.757 159.325 211.757 158.707V151.859H213.917V158.147C213.917 158.595 214.136 158.819 214.573 158.819H215.117V160.499H213.645ZM223.685 160.659C222.757 160.659 222.027 160.381 221.493 159.827C220.96 159.261 220.693 158.477 220.693 157.475V151.859H222.853V157.347C222.853 157.933 222.981 158.355 223.237 158.611C223.504 158.856 223.893 158.979 224.405 158.979C224.811 158.979 225.205 158.893 225.589 158.723C225.973 158.552 226.283 158.339 226.517 158.083V151.859H228.677V160.499H226.693L226.597 159.651C226.213 159.96 225.781 160.205 225.301 160.387C224.821 160.568 224.283 160.659 223.685 160.659ZM233.32 160.659C232.776 160.659 232.275 160.573 231.816 160.403C231.357 160.221 230.989 159.933 230.712 159.539C230.445 159.133 230.312 158.6 230.312 157.939C230.312 157.075 230.605 156.413 231.192 155.955C231.779 155.485 232.621 155.251 233.72 155.251H236.168V154.835C236.168 154.301 236.019 153.928 235.72 153.715C235.421 153.491 234.893 153.379 234.136 153.379C233.613 153.379 233.117 153.416 232.648 153.491C232.189 153.555 231.731 153.661 231.272 153.811V152.195C231.709 152.056 232.216 151.939 232.792 151.843C233.368 151.747 233.933 151.699 234.488 151.699C235.779 151.699 236.739 151.971 237.368 152.515C238.008 153.059 238.328 153.907 238.328 155.059V160.499H236.168V156.835H233.848C233.389 156.835 233.027 156.915 232.76 157.075C232.493 157.235 232.36 157.523 232.36 157.939C232.36 158.333 232.477 158.605 232.712 158.755C232.947 158.904 233.341 158.979 233.896 158.979C234.099 158.979 234.296 158.968 234.488 158.947C234.691 158.925 234.861 158.893 235 158.851V160.435C234.797 160.499 234.547 160.552 234.248 160.595C233.96 160.637 233.651 160.659 233.32 160.659ZM245.276 160.499L243.26 151.859H245.34L246.476 157.411L247.788 153.235V151.859H249.292L250.828 157.411L251.932 151.859H253.996L251.98 160.499H250.108L248.684 155.555L247.148 160.499H245.276ZM248.615 150.675V148.131H250.375V149.203H254.359L254.279 150.675H248.615ZM258.63 160.659C257.937 160.659 257.318 160.509 256.774 160.211C256.23 159.912 255.798 159.448 255.478 158.819C255.169 158.179 255.014 157.357 255.014 156.355C255.014 154.829 255.265 153.672 255.766 152.883C256.278 152.093 256.971 151.699 257.846 151.699C258.305 151.699 258.662 151.773 258.918 151.923C259.174 152.072 259.387 152.269 259.558 152.515C259.771 152.269 260.054 152.072 260.406 151.923C260.758 151.773 261.131 151.699 261.526 151.699C262.283 151.699 262.827 151.928 263.158 152.387C263.489 152.845 263.654 153.448 263.654 154.195V158.083C263.889 158.339 264.187 158.552 264.55 158.723C264.913 158.893 265.291 158.979 265.686 158.979C266.198 158.979 266.571 158.856 266.806 158.611C267.041 158.355 267.158 157.933 267.158 157.347V151.859H269.318V157.475C269.318 158.477 269.062 159.261 268.55 159.827C268.049 160.381 267.334 160.659 266.406 160.659C265.809 160.659 265.281 160.568 264.822 160.387C264.374 160.205 263.958 159.96 263.574 159.651L263.478 160.499H261.574V154.531C261.574 154.157 261.537 153.875 261.462 153.683C261.387 153.48 261.206 153.379 260.918 153.379C260.726 153.379 260.55 153.443 260.39 153.571C260.241 153.688 260.134 153.869 260.07 154.115H259.03C258.923 153.869 258.811 153.688 258.694 153.571C258.577 153.443 258.406 153.379 258.182 153.379C257.723 153.379 257.419 153.656 257.27 154.211C257.131 154.755 257.062 155.469 257.062 156.355C257.062 157.325 257.233 158.008 257.574 158.403C257.915 158.787 258.395 158.979 259.014 158.979C259.217 158.979 259.414 158.968 259.606 158.947C259.809 158.925 259.979 158.893 260.118 158.851V160.435C259.926 160.509 259.713 160.563 259.478 160.595C259.243 160.637 258.961 160.659 258.63 160.659ZM274.217 160.659C273.289 160.659 272.558 160.381 272.025 159.827C271.491 159.261 271.225 158.477 271.225 157.475V151.859H273.385V157.347C273.385 157.933 273.513 158.355 273.769 158.611C274.035 158.856 274.425 158.979 274.937 158.979C275.342 158.979 275.737 158.893 276.121 158.723C276.505 158.552 276.814 158.339 277.049 158.083V151.859H279.209V160.499H277.225L277.129 159.651C276.745 159.96 276.313 160.205 275.833 160.387C275.353 160.568 274.814 160.659 274.217 160.659ZM284.171 160.499V155.187C284.171 154.611 284.059 154.168 283.835 153.859C283.611 153.539 283.163 153.379 282.491 153.379C282.139 153.379 281.766 153.421 281.371 153.507C280.976 153.581 280.624 153.677 280.315 153.795V152.211C280.635 152.061 281.03 151.939 281.499 151.843C281.968 151.747 282.438 151.699 282.907 151.699C284.123 151.699 284.998 151.96 285.531 152.483C286.064 152.995 286.331 153.795 286.331 154.883V160.499H284.171ZM288.32 160.499V157.747C288.32 157.256 288.4 156.824 288.56 156.451C288.731 156.067 289.061 155.8 289.552 155.651L287.92 155.219V153.155C288.357 152.781 288.939 152.445 289.664 152.147C290.4 151.848 291.237 151.699 292.176 151.699C293.04 151.699 293.776 151.811 294.384 152.035C295.003 152.259 295.472 152.632 295.792 153.155C296.123 153.677 296.288 154.387 296.288 155.283V160.499H294.128V155.235C294.128 154.563 293.968 154.088 293.648 153.811C293.339 153.523 292.811 153.379 292.064 153.379C291.584 153.379 291.141 153.448 290.736 153.587C290.341 153.725 290.021 153.901 289.776 154.115V154.339L291.552 154.819V156.131C291.125 156.237 290.837 156.413 290.688 156.659C290.549 156.893 290.48 157.261 290.48 157.763V160.499H288.32ZM301.249 160.499V155.187C301.249 154.611 301.137 154.168 300.913 153.859C300.689 153.539 300.241 153.379 299.569 153.379C299.217 153.379 298.844 153.421 298.449 153.507C298.055 153.581 297.703 153.677 297.393 153.795V152.211C297.713 152.061 298.108 151.939 298.577 151.843C299.047 151.747 299.516 151.699 299.985 151.699C301.201 151.699 302.076 151.96 302.609 152.483C303.143 152.995 303.409 153.795 303.409 154.883V160.499H301.249ZM308.23 160.659C307.633 160.659 307.057 160.616 306.502 160.531C305.958 160.445 305.516 160.333 305.174 160.195V158.451C305.58 158.621 306.022 158.755 306.502 158.851C306.993 158.936 307.436 158.979 307.83 158.979C308.524 158.979 309.025 158.925 309.334 158.819C309.654 158.712 309.814 158.493 309.814 158.163C309.814 157.907 309.729 157.709 309.558 157.571C309.398 157.432 309.148 157.309 308.806 157.203C308.465 157.085 308.028 156.936 307.494 156.755C306.716 156.477 306.102 156.168 305.654 155.827C305.217 155.475 304.998 154.957 304.998 154.275C304.998 153.507 305.297 152.888 305.894 152.419C306.492 151.939 307.393 151.699 308.598 151.699C309.1 151.699 309.601 151.736 310.102 151.811C310.604 151.885 311.014 151.976 311.334 152.083V153.811C310.982 153.661 310.577 153.555 310.118 153.491C309.67 153.416 309.265 153.379 308.902 153.379C308.401 153.379 307.964 153.437 307.59 153.555C307.228 153.661 307.046 153.885 307.046 154.227C307.046 154.44 307.137 154.611 307.318 154.739C307.51 154.867 307.777 154.984 308.118 155.091C308.47 155.197 308.886 155.336 309.366 155.507C309.964 155.709 310.444 155.923 310.806 156.147C311.18 156.371 311.446 156.643 311.606 156.963C311.777 157.283 311.862 157.683 311.862 158.163C311.862 159.005 311.537 159.635 310.886 160.051C310.246 160.456 309.361 160.659 308.23 160.659ZM321.233 160.499V158.339H316.241V156.867L321.505 150.195H323.393V156.595H324.401V158.339H323.393V160.499H321.233ZM318.305 156.675H321.601V152.579L318.305 156.675ZM329.936 160.915C328.805 160.915 327.898 160.701 327.216 160.275C326.533 159.848 326.037 159.229 325.728 158.419C325.429 157.597 325.28 156.616 325.28 155.475C325.28 154.323 325.429 153.341 325.728 152.531C326.037 151.72 326.533 151.101 327.216 150.675C327.898 150.248 328.805 150.035 329.936 150.035C331.066 150.035 331.973 150.248 332.656 150.675C333.338 151.101 333.829 151.72 334.128 152.531C334.437 153.341 334.592 154.323 334.592 155.475C334.592 156.616 334.437 157.597 334.128 158.419C333.829 159.229 333.338 159.848 332.656 160.275C331.973 160.701 331.066 160.915 329.936 160.915ZM329.936 159.059C330.864 159.059 331.504 158.749 331.856 158.131C332.218 157.512 332.4 156.627 332.4 155.475C332.4 154.323 332.218 153.437 331.856 152.819C331.504 152.2 330.864 151.891 329.936 151.891C329.008 151.891 328.362 152.2 328 152.819C327.648 153.437 327.472 154.323 327.472 155.475C327.472 156.627 327.648 157.512 328 158.131C328.362 158.749 329.008 159.059 329.936 159.059Z" fill="#58585A"/>
<path d="M79.4883 181.499V173.393H76.4923V172.483H83.6323V173.393H80.6363V181.499H79.4883ZM83.8472 181.499V174.863H84.8832L84.9672 175.703C85.2939 175.488 85.6765 175.292 86.1152 175.115C86.5632 174.937 87.0019 174.807 87.4312 174.723V175.619C87.1699 175.675 86.8852 175.754 86.5772 175.857C86.2692 175.95 85.9752 176.057 85.6952 176.179C85.4152 176.3 85.1819 176.426 84.9952 176.557V181.499H83.8472ZM90.3212 181.639C89.9012 181.639 89.5139 181.564 89.1592 181.415C88.8045 181.265 88.5199 181.046 88.3052 180.757C88.0905 180.458 87.9832 180.085 87.9832 179.637C87.9832 179.03 88.1839 178.535 88.5852 178.153C88.9865 177.761 89.6399 177.565 90.5452 177.565H92.8552V177.159C92.8552 176.795 92.8039 176.505 92.7012 176.291C92.6079 176.076 92.4259 175.922 92.1552 175.829C91.8845 175.735 91.4879 175.689 90.9652 175.689C90.5639 175.689 90.1765 175.721 89.8032 175.787C89.4299 175.852 89.0799 175.941 88.7532 176.053V175.101C89.0519 174.989 89.4019 174.9 89.8032 174.835C90.2139 174.76 90.6525 174.723 91.1192 174.723C92.0619 174.723 92.7665 174.914 93.2332 175.297C93.7092 175.679 93.9472 176.3 93.9472 177.159V181.499H92.9812L92.8972 180.743C92.6079 181.041 92.2579 181.265 91.8472 181.415C91.4365 181.564 90.9279 181.639 90.3212 181.639ZM90.6152 180.701C91.1005 180.701 91.5299 180.617 91.9032 180.449C92.2765 180.271 92.5939 180.033 92.8552 179.735V178.447H90.5732C90.0505 178.447 89.6772 178.545 89.4532 178.741C89.2292 178.937 89.1172 179.235 89.1172 179.637C89.1172 180.038 89.2525 180.318 89.5232 180.477C89.7939 180.626 90.1579 180.701 90.6152 180.701ZM95.8374 181.499V174.863H96.8734L96.9434 175.619C97.2608 175.357 97.6294 175.143 98.0494 174.975C98.4788 174.807 98.9688 174.723 99.5194 174.723C100.359 174.723 100.971 174.919 101.353 175.311C101.736 175.703 101.927 176.319 101.927 177.159V181.499H100.779V177.201C100.779 176.622 100.663 176.221 100.429 175.997C100.196 175.763 99.7481 175.647 99.0854 175.647C98.6748 175.647 98.2874 175.721 97.9234 175.871C97.5594 176.02 97.2468 176.225 96.9854 176.487V181.499H95.8374ZM106.319 181.639C105.386 181.639 104.653 181.382 104.121 180.869C103.589 180.346 103.323 179.483 103.323 178.279C103.323 177.084 103.598 176.193 104.149 175.605C104.709 175.017 105.456 174.723 106.389 174.723C107.22 174.723 107.938 174.933 108.545 175.353V172.063H109.693V181.499H108.713L108.629 180.799C108.321 181.088 107.98 181.303 107.607 181.443C107.243 181.573 106.814 181.639 106.319 181.639ZM106.613 180.715C106.996 180.715 107.35 180.649 107.677 180.519C108.004 180.388 108.293 180.187 108.545 179.917V176.305C108.312 176.099 108.036 175.941 107.719 175.829C107.402 175.707 107.042 175.647 106.641 175.647C105.904 175.647 105.358 175.861 105.003 176.291C104.648 176.711 104.471 177.373 104.471 178.279C104.471 179.147 104.634 179.772 104.961 180.155C105.288 180.528 105.838 180.715 106.613 180.715ZM113.645 181.639C113.225 181.639 112.838 181.564 112.483 181.415C112.129 181.265 111.844 181.046 111.629 180.757C111.415 180.458 111.307 180.085 111.307 179.637C111.307 179.03 111.508 178.535 111.909 178.153C112.311 177.761 112.964 177.565 113.869 177.565H116.179V177.159C116.179 176.795 116.128 176.505 116.025 176.291C115.932 176.076 115.75 175.922 115.479 175.829C115.209 175.735 114.812 175.689 114.289 175.689C113.888 175.689 113.501 175.721 113.127 175.787C112.754 175.852 112.404 175.941 112.077 176.053V175.101C112.376 174.989 112.726 174.9 113.127 174.835C113.538 174.76 113.977 174.723 114.443 174.723C115.386 174.723 116.091 174.914 116.557 175.297C117.033 175.679 117.271 176.3 117.271 177.159V181.499H116.305L116.221 180.743C115.932 181.041 115.582 181.265 115.171 181.415C114.761 181.564 114.252 181.639 113.645 181.639ZM113.939 180.701C114.425 180.701 114.854 180.617 115.227 180.449C115.601 180.271 115.918 180.033 116.179 179.735V178.447H113.897C113.375 178.447 113.001 178.545 112.777 178.741C112.553 178.937 112.441 179.235 112.441 179.637C112.441 180.038 112.577 180.318 112.847 180.477C113.118 180.626 113.482 180.701 113.939 180.701ZM119.162 181.499V174.863H120.198L120.282 175.703C120.608 175.488 120.991 175.292 121.43 175.115C121.878 174.937 122.316 174.807 122.746 174.723V175.619C122.484 175.675 122.2 175.754 121.892 175.857C121.584 175.95 121.29 176.057 121.01 176.179C120.73 176.3 120.496 176.426 120.31 176.557V181.499H119.162ZM127.228 181.499V172.483H128.376V181.499H127.228ZM130.332 181.499V174.863H131.368L131.438 175.619C131.755 175.357 132.124 175.143 132.544 174.975C132.973 174.807 133.463 174.723 134.014 174.723C134.854 174.723 135.465 174.919 135.848 175.311C136.23 175.703 136.422 176.319 136.422 177.159V181.499H135.274V177.201C135.274 176.622 135.157 176.221 134.924 175.997C134.69 175.763 134.242 175.647 133.58 175.647C133.169 175.647 132.782 175.721 132.418 175.871C132.054 176.02 131.741 176.225 131.48 176.487V181.499H130.332ZM140.738 181.639C140.085 181.639 139.59 181.466 139.254 181.121C138.927 180.766 138.764 180.276 138.764 179.651V175.773H137.756V174.863H138.764V173.225L139.912 172.875V174.863H141.746L141.676 175.773H139.912V179.595C139.912 179.996 140.001 180.285 140.178 180.463C140.365 180.631 140.682 180.715 141.13 180.715C141.373 180.715 141.639 180.668 141.928 180.575V181.443C141.583 181.573 141.186 181.639 140.738 181.639ZM146.513 181.639C145.328 181.639 144.441 181.354 143.853 180.785C143.265 180.215 142.971 179.338 142.971 178.153C142.971 177.089 143.223 176.253 143.727 175.647C144.241 175.031 145.048 174.723 146.149 174.723C146.803 174.723 147.339 174.844 147.759 175.087C148.189 175.32 148.506 175.647 148.711 176.067C148.926 176.477 149.033 176.944 149.033 177.467V178.713H144.119C144.157 179.217 144.264 179.613 144.441 179.903C144.628 180.192 144.903 180.402 145.267 180.533C145.641 180.654 146.131 180.715 146.737 180.715C147.419 180.715 148.044 180.598 148.613 180.365V181.261C148.324 181.382 147.997 181.475 147.633 181.541C147.279 181.606 146.905 181.639 146.513 181.639ZM144.119 177.887H148.011V177.341C148.011 176.799 147.867 176.384 147.577 176.095C147.297 175.796 146.831 175.647 146.177 175.647C145.384 175.647 144.843 175.833 144.553 176.207C144.264 176.58 144.119 177.14 144.119 177.887ZM150.716 181.499V174.863H151.752L151.836 175.703C152.163 175.488 152.546 175.292 152.984 175.115C153.432 174.937 153.871 174.807 154.3 174.723V175.619C154.039 175.675 153.754 175.754 153.446 175.857C153.138 175.95 152.844 176.057 152.564 176.179C152.284 176.3 152.051 176.426 151.864 176.557V181.499H150.716ZM155.556 181.499V174.863H156.592L156.662 175.619C156.98 175.357 157.348 175.143 157.768 174.975C158.198 174.807 158.688 174.723 159.238 174.723C160.078 174.723 160.69 174.919 161.072 175.311C161.455 175.703 161.646 176.319 161.646 177.159V181.499H160.498V177.201C160.498 176.622 160.382 176.221 160.148 175.997C159.915 175.763 159.467 175.647 158.804 175.647C158.394 175.647 158.006 175.721 157.642 175.871C157.278 176.02 156.966 176.225 156.704 176.487V181.499H155.556ZM165.393 181.639C164.973 181.639 164.586 181.564 164.231 181.415C163.877 181.265 163.592 181.046 163.377 180.757C163.163 180.458 163.055 180.085 163.055 179.637C163.055 179.03 163.256 178.535 163.657 178.153C164.059 177.761 164.712 177.565 165.617 177.565H167.927V177.159C167.927 176.795 167.876 176.505 167.773 176.291C167.68 176.076 167.498 175.922 167.227 175.829C166.957 175.735 166.56 175.689 166.037 175.689C165.636 175.689 165.249 175.721 164.875 175.787C164.502 175.852 164.152 175.941 163.825 176.053V175.101C164.124 174.989 164.474 174.9 164.875 174.835C165.286 174.76 165.725 174.723 166.191 174.723C167.134 174.723 167.839 174.914 168.305 175.297C168.781 175.679 169.019 176.3 169.019 177.159V181.499H168.053L167.969 180.743C167.68 181.041 167.33 181.265 166.919 181.415C166.509 181.564 166 181.639 165.393 181.639ZM165.687 180.701C166.173 180.701 166.602 180.617 166.975 180.449C167.349 180.271 167.666 180.033 167.927 179.735V178.447H165.645C165.123 178.447 164.749 178.545 164.525 178.741C164.301 178.937 164.189 179.235 164.189 179.637C164.189 180.038 164.325 180.318 164.595 180.477C164.866 180.626 165.23 180.701 165.687 180.701ZM173.332 181.639C172.678 181.639 172.184 181.466 171.848 181.121C171.521 180.766 171.358 180.276 171.358 179.651V175.773H170.35V174.863H171.358V173.225L172.506 172.875V174.863H174.34L174.27 175.773H172.506V179.595C172.506 179.996 172.594 180.285 172.772 180.463C172.958 180.631 173.276 180.715 173.724 180.715C173.966 180.715 174.232 180.668 174.522 180.575V181.443C174.176 181.573 173.78 181.639 173.332 181.639ZM176.202 173.309V172.259H177.476V173.309H176.202ZM176.314 181.499V175.773H175.292L175.404 174.863H177.462V181.499H176.314ZM182.479 181.639C181.322 181.639 180.477 181.345 179.945 180.757C179.422 180.159 179.161 179.301 179.161 178.181C179.161 177.07 179.427 176.216 179.959 175.619C180.491 175.021 181.331 174.723 182.479 174.723C183.627 174.723 184.467 175.021 184.999 175.619C185.531 176.216 185.797 177.07 185.797 178.181C185.797 179.301 185.536 180.159 185.013 180.757C184.49 181.345 183.646 181.639 182.479 181.639ZM182.479 180.659C183.272 180.659 183.832 180.463 184.159 180.071C184.486 179.669 184.649 179.039 184.649 178.181C184.649 177.322 184.481 176.697 184.145 176.305C183.818 175.903 183.263 175.703 182.479 175.703C181.695 175.703 181.135 175.903 180.799 176.305C180.472 176.697 180.309 177.322 180.309 178.181C180.309 179.039 180.472 179.669 180.799 180.071C181.126 180.463 181.686 180.659 182.479 180.659ZM187.48 181.499V174.863H188.516L188.586 175.619C188.903 175.357 189.272 175.143 189.692 174.975C190.121 174.807 190.611 174.723 191.162 174.723C192.002 174.723 192.613 174.919 192.996 175.311C193.379 175.703 193.57 176.319 193.57 177.159V181.499H192.422V177.201C192.422 176.622 192.305 176.221 192.072 175.997C191.839 175.763 191.391 175.647 190.728 175.647C190.317 175.647 189.93 175.721 189.566 175.871C189.202 176.02 188.889 176.225 188.628 176.487V181.499H187.48ZM197.317 181.639C196.897 181.639 196.51 181.564 196.155 181.415C195.801 181.265 195.516 181.046 195.301 180.757C195.087 180.458 194.979 180.085 194.979 179.637C194.979 179.03 195.18 178.535 195.581 178.153C195.983 177.761 196.636 177.565 197.541 177.565H199.851V177.159C199.851 176.795 199.8 176.505 199.697 176.291C199.604 176.076 199.422 175.922 199.151 175.829C198.881 175.735 198.484 175.689 197.961 175.689C197.56 175.689 197.173 175.721 196.799 175.787C196.426 175.852 196.076 175.941 195.749 176.053V175.101C196.048 174.989 196.398 174.9 196.799 174.835C197.21 174.76 197.649 174.723 198.115 174.723C199.058 174.723 199.763 174.914 200.229 175.297C200.705 175.679 200.943 176.3 200.943 177.159V181.499H199.977L199.893 180.743C199.604 181.041 199.254 181.265 198.843 181.415C198.433 181.564 197.924 181.639 197.317 181.639ZM197.611 180.701C198.097 180.701 198.526 180.617 198.899 180.449C199.273 180.271 199.59 180.033 199.851 179.735V178.447H197.569C197.047 178.447 196.673 178.545 196.449 178.741C196.225 178.937 196.113 179.235 196.113 179.637C196.113 180.038 196.249 180.318 196.519 180.477C196.79 180.626 197.154 180.701 197.611 180.701ZM204.276 181.639C203.828 181.639 203.473 181.522 203.212 181.289C202.96 181.046 202.834 180.64 202.834 180.071V172.063H203.982V179.945C203.982 180.225 204.028 180.416 204.122 180.519C204.215 180.621 204.36 180.673 204.556 180.673C204.77 180.673 204.98 180.645 205.186 180.589V181.499C205.036 181.555 204.887 181.592 204.738 181.611C204.588 181.629 204.434 181.639 204.276 181.639ZM212.964 181.499V172.483H216.772C217.78 172.483 218.522 172.753 218.998 173.295C219.474 173.836 219.712 174.536 219.712 175.395C219.712 176.272 219.442 176.967 218.9 177.481C218.368 177.985 217.64 178.237 216.716 178.237H214.112V181.499H212.964ZM214.112 177.341H216.534C217.206 177.341 217.71 177.168 218.046 176.823C218.392 176.468 218.564 175.992 218.564 175.395C218.564 174.76 218.401 174.27 218.074 173.925C217.757 173.57 217.267 173.393 216.604 173.393H214.112V177.341ZM221.113 181.499V172.063H222.261V175.577C222.569 175.325 222.928 175.119 223.339 174.961C223.759 174.802 224.244 174.723 224.795 174.723C225.597 174.723 226.199 174.919 226.601 175.311C227.002 175.703 227.203 176.319 227.203 177.159V181.499H226.055V177.201C226.055 176.622 225.924 176.221 225.663 175.997C225.411 175.763 224.991 175.647 224.403 175.647C224.029 175.647 223.642 175.731 223.241 175.899C222.849 176.057 222.522 176.267 222.261 176.529V181.499H221.113ZM230.95 181.639C230.53 181.639 230.143 181.564 229.788 181.415C229.433 181.265 229.149 181.046 228.934 180.757C228.719 180.458 228.612 180.085 228.612 179.637C228.612 179.03 228.813 178.535 229.214 178.153C229.615 177.761 230.269 177.565 231.174 177.565H233.484V177.159C233.484 176.795 233.433 176.505 233.33 176.291C233.237 176.076 233.055 175.922 232.784 175.829C232.513 175.735 232.117 175.689 231.594 175.689C231.193 175.689 230.805 175.721 230.432 175.787C230.059 175.852 229.709 175.941 229.382 176.053V175.101C229.681 174.989 230.031 174.9 230.432 174.835C230.843 174.76 231.281 174.723 231.748 174.723C232.691 174.723 233.395 174.914 233.862 175.297C234.338 175.679 234.576 176.3 234.576 177.159V181.499H233.61L233.526 180.743C233.237 181.041 232.887 181.265 232.476 181.415C232.065 181.564 231.557 181.639 230.95 181.639ZM231.244 180.701C231.729 180.701 232.159 180.617 232.532 180.449C232.905 180.271 233.223 180.033 233.484 179.735V178.447H231.202C230.679 178.447 230.306 178.545 230.082 178.741C229.858 178.937 229.746 179.235 229.746 179.637C229.746 180.038 229.881 180.318 230.152 180.477C230.423 180.626 230.787 180.701 231.244 180.701ZM238.888 181.639C238.235 181.639 237.74 181.466 237.404 181.121C237.078 180.766 236.914 180.276 236.914 179.651V175.773H235.906V174.863H236.914V173.225L238.062 172.875V174.863H239.896L239.826 175.773H238.062V179.595C238.062 179.996 238.151 180.285 238.328 180.463C238.515 180.631 238.832 180.715 239.28 180.715C239.523 180.715 239.789 180.668 240.078 180.575V181.443C239.733 181.573 239.336 181.639 238.888 181.639ZM243.824 181.639C243.171 181.639 242.676 181.466 242.34 181.121C242.013 180.766 241.85 180.276 241.85 179.651V175.773H240.842V174.863H241.85V173.225L242.998 172.875V174.863H244.832L244.762 175.773H242.998V179.595C242.998 179.996 243.087 180.285 243.264 180.463C243.451 180.631 243.768 180.715 244.216 180.715C244.459 180.715 244.725 180.668 245.014 180.575V181.443C244.669 181.573 244.272 181.639 243.824 181.639ZM246.337 181.499V172.063H247.485V175.577C247.793 175.325 248.153 175.119 248.563 174.961C248.983 174.802 249.469 174.723 250.019 174.723C250.822 174.723 251.424 174.919 251.825 175.311C252.227 175.703 252.427 176.319 252.427 177.159V181.499H251.279V177.201C251.279 176.622 251.149 176.221 250.887 175.997C250.635 175.763 250.215 175.647 249.627 175.647C249.254 175.647 248.867 175.731 248.465 175.899C248.073 176.057 247.747 176.267 247.485 176.529V181.499H246.337ZM256.175 181.639C255.755 181.639 255.367 181.564 255.013 181.415C254.658 181.265 254.373 181.046 254.159 180.757C253.944 180.458 253.837 180.085 253.837 179.637C253.837 179.03 254.037 178.535 254.439 178.153C254.84 177.761 255.493 177.565 256.399 177.565H258.709V177.159C258.709 176.795 258.657 176.505 258.555 176.291C258.461 176.076 258.279 175.922 258.009 175.829C257.738 175.735 257.341 175.689 256.819 175.689C256.417 175.689 256.03 175.721 255.657 175.787C255.283 175.852 254.933 175.941 254.607 176.053V175.101C254.905 174.989 255.255 174.9 255.657 174.835C256.067 174.76 256.506 174.723 256.973 174.723C257.915 174.723 258.62 174.914 259.087 175.297C259.563 175.679 259.801 176.3 259.801 177.159V181.499H258.835L258.751 180.743C258.461 181.041 258.111 181.265 257.701 181.415C257.29 181.564 256.781 181.639 256.175 181.639ZM256.469 180.701C256.954 180.701 257.383 180.617 257.757 180.449C258.13 180.271 258.447 180.033 258.709 179.735V178.447H256.427C255.904 178.447 255.531 178.545 255.307 178.741C255.083 178.937 254.971 179.235 254.971 179.637C254.971 180.038 255.106 180.318 255.377 180.477C255.647 180.626 256.011 180.701 256.469 180.701ZM261.691 181.499V174.863H262.727L262.797 175.619C263.114 175.357 263.483 175.143 263.903 174.975C264.332 174.807 264.822 174.723 265.373 174.723C266.213 174.723 266.824 174.919 267.207 175.311C267.59 175.703 267.781 176.319 267.781 177.159V181.499H266.633V177.201C266.633 176.622 266.516 176.221 266.283 175.997C266.05 175.763 265.602 175.647 264.939 175.647C264.528 175.647 264.141 175.721 263.777 175.871C263.413 176.02 263.1 176.225 262.839 176.487V181.499H261.691ZM271.528 181.639C271.108 181.639 270.721 181.564 270.366 181.415C270.012 181.265 269.727 181.046 269.512 180.757C269.298 180.458 269.19 180.085 269.19 179.637C269.19 179.03 269.391 178.535 269.792 178.153C270.194 177.761 270.847 177.565 271.752 177.565H274.062V177.159C274.062 176.795 274.011 176.505 273.908 176.291C273.815 176.076 273.633 175.922 273.362 175.829C273.092 175.735 272.695 175.689 272.172 175.689C271.771 175.689 271.384 175.721 271.01 175.787C270.637 175.852 270.287 175.941 269.96 176.053V175.101C270.259 174.989 270.609 174.9 271.01 174.835C271.421 174.76 271.86 174.723 272.326 174.723C273.269 174.723 273.974 174.914 274.44 175.297C274.916 175.679 275.154 176.3 275.154 177.159V181.499H274.188L274.104 180.743C273.815 181.041 273.465 181.265 273.054 181.415C272.644 181.564 272.135 181.639 271.528 181.639ZM271.822 180.701C272.308 180.701 272.737 180.617 273.11 180.449C273.484 180.271 273.801 180.033 274.062 179.735V178.447H271.78C271.258 178.447 270.884 178.545 270.66 178.741C270.436 178.937 270.324 179.235 270.324 179.637C270.324 180.038 270.46 180.318 270.73 180.477C271.001 180.626 271.365 180.701 271.822 180.701ZM277.044 181.499V172.063H278.192V177.789L281.3 174.863H282.63L279.914 177.495L282.784 181.499H281.58L279.186 178.111L278.192 179.049V181.499H277.044ZM285.542 181.639C285.122 181.639 284.735 181.564 284.38 181.415C284.025 181.265 283.741 181.046 283.526 180.757C283.311 180.458 283.204 180.085 283.204 179.637C283.204 179.03 283.405 178.535 283.806 178.153C284.207 177.761 284.861 177.565 285.766 177.565H288.076V177.159C288.076 176.795 288.025 176.505 287.922 176.291C287.829 176.076 287.647 175.922 287.376 175.829C287.105 175.735 286.709 175.689 286.186 175.689C285.785 175.689 285.397 175.721 285.024 175.787C284.651 175.852 284.301 175.941 283.974 176.053V175.101C284.273 174.989 284.623 174.9 285.024 174.835C285.435 174.76 285.873 174.723 286.34 174.723C287.283 174.723 287.987 174.914 288.454 175.297C288.93 175.679 289.168 176.3 289.168 177.159V181.499H288.202L288.118 180.743C287.829 181.041 287.479 181.265 287.068 181.415C286.657 181.564 286.149 181.639 285.542 181.639ZM285.836 180.701C286.321 180.701 286.751 180.617 287.124 180.449C287.497 180.271 287.815 180.033 288.076 179.735V178.447H285.794C285.271 178.447 284.898 178.545 284.674 178.741C284.45 178.937 284.338 179.235 284.338 179.637C284.338 180.038 284.473 180.318 284.744 180.477C285.015 180.626 285.379 180.701 285.836 180.701ZM291.058 181.499V174.863H292.094L292.164 175.619C292.481 175.357 292.85 175.143 293.27 174.975C293.699 174.807 294.189 174.723 294.74 174.723C295.58 174.723 296.191 174.919 296.574 175.311C296.957 175.703 297.148 176.319 297.148 177.159V181.499H296V177.201C296 176.622 295.883 176.221 295.65 175.997C295.417 175.763 294.969 175.647 294.306 175.647C293.895 175.647 293.508 175.721 293.144 175.871C292.78 176.02 292.467 176.225 292.206 176.487V181.499H291.058ZM306.343 181.499V179.427H301.709V178.559L306.469 172.483H307.491V178.489H308.443V179.427H307.491V181.499H306.343ZM302.857 178.517H306.497V173.855L302.857 178.517ZM313.399 181.639C312.494 181.639 311.757 181.457 311.187 181.093C310.627 180.729 310.217 180.206 309.955 179.525C309.694 178.843 309.563 178.036 309.563 177.103C309.563 176.095 309.685 175.236 309.927 174.527C310.17 173.817 310.571 173.276 311.131 172.903C311.691 172.529 312.447 172.343 313.399 172.343C314.342 172.343 315.093 172.529 315.653 172.903C316.213 173.276 316.615 173.817 316.857 174.527C317.1 175.236 317.221 176.095 317.221 177.103C317.221 178.036 317.091 178.843 316.829 179.525C316.577 180.206 316.171 180.729 315.611 181.093C315.051 181.457 314.314 181.639 313.399 181.639ZM313.399 180.659C314.062 180.659 314.585 180.514 314.967 180.225C315.359 179.926 315.639 179.511 315.807 178.979C315.985 178.437 316.073 177.812 316.073 177.103C316.073 175.88 315.877 174.947 315.485 174.303C315.103 173.649 314.407 173.323 313.399 173.323C312.727 173.323 312.195 173.467 311.803 173.757C311.411 174.046 311.131 174.475 310.963 175.045C310.795 175.605 310.711 176.291 310.711 177.103C310.711 177.812 310.795 178.437 310.963 178.979C311.141 179.511 311.425 179.926 311.817 180.225C312.219 180.514 312.746 180.659 313.399 180.659Z" fill="#F28C1F"/>
</g>
<defs>
<filter id="filter0_d_361_186" x="-3" y="0" width="400" height="237.999" filterUnits="userSpaceOnUse" color-interpolation-filters="sRGB">
<feFlood flood-opacity="0" result="BackgroundImageFix"/>
<feColorMatrix in="SourceAlpha" type="matrix" values="0 0 0 0 0 0 0 0 0 0 0 0 0 0 0 0 0 0 127 0" result="hardAlpha"/>
<feOffset dy="4"/>
<feGaussianBlur stdDeviation="12.5"/>
<feComposite in2="hardAlpha" operator="out"/>
<feColorMatrix type="matrix" values="0 0 0 0 0 0 0 0 0 0 0 0 0 0 0 0 0 0 0.25 0"/>
<feBlend mode="normal" in2="BackgroundImageFix" result="effect1_dropShadow_361_186"/>
<feBlend mode="normal" in="SourceGraphic" in2="effect1_dropShadow_361_186" result="shape"/>
</filter>
<filter id="filter1_d_361_186" x="149.36" y="41.5" width="95.2797" height="90.9985" filterUnits="userSpaceOnUse" color-interpolation-filters="sRGB">
<feFlood flood-opacity="0" result="BackgroundImageFix"/>
<feColorMatrix in="SourceAlpha" type="matrix" values="0 0 0 0 0 0 0 0 0 0 0 0 0 0 0 0 0 0 127 0" result="hardAlpha"/>
<feOffset dy="2"/>
<feGaussianBlur stdDeviation="1.5"/>
<feComposite in2="hardAlpha" operator="out"/>
<feColorMatrix type="matrix" values="0 0 0 0 0 0 0 0 0 0 0 0 0 0 0 0 0 0 0.2 0"/>
<feBlend mode="normal" in2="BackgroundImageFix" result="effect1_dropShadow_361_186"/>
<feBlend mode="normal" in="SourceGraphic" in2="effect1_dropShadow_361_186" result="shape"/>
</filter>
<linearGradient id="paint0_linear_361_186" x1="197" y1="42.5" x2="197" y2="127.499" gradientUnits="userSpaceOnUse">
<stop stop-color="#FF5900"/>
<stop offset="0.610577" stop-color="#FF8300"/>
</linearGradient>
</defs>
</svg>
